<svg width="71" height="50" xmlns="http://www.w3.org/2000/svg">
 <g>
  <path stroke="null" d="m71.13445,25.17855l-4.12471,0l0,3.63316l-4.12555,0l0,-3.63316l-4.12429,0l0,-3.63204l4.12429,0l0,-3.63242l4.12555,0l0,3.63242l4.12471,0l0,3.63204" fill="current" fill-rule="nonzero" id="svg_3"/>
  <path stroke="null" d="m57.17467,25.42603l-3.99165,0l0,3.85797l-3.99206,0l0,-3.85797l-3.99206,0l0,-3.85678l3.99206,0l0,-3.85718l3.99206,0l0,3.85718l3.99165,0l0,3.85678" fill="current" fill-rule="nonzero" id="svg_4"/>
  <path transform="rotate(-0.385154 24.734 25.1248)" stroke="null" d="m37.96229,31.25627c-2.26082,3.80331 -6.55699,6.37365 -11.4876,6.37365c-4.90035,0 -9.17216,-2.5381 -11.44454,-6.30116c-1.10391,-1.82856 -1.73867,-3.94562 -1.73867,-6.2041c0,-6.90624 5.90256,-12.50496 13.18321,-12.50496c4.86884,0 9.1182,2.50643 11.4018,6.23101l0,0l11.52282,-6.29404c-4.58001,-7.49948 -13.1308,-12.54489 -22.92465,-12.54489c-14.6218,0 -26.47466,11.24361 -26.47466,25.11288c0,4.55011 1.27608,8.81705 3.50636,12.49756c4.56846,7.53912 13.14359,12.61562 22.96833,12.61562c9.8428,0 18.43138,-5.0969 22.99327,-12.65823l0,0l-11.50569,-6.32334" fill="current" fill-rule="nonzero" id="svg_5"/>
 </g>

</svg>