<svg viewBox="0 0 76 50" xmlns="http://www.w3.org/2000/svg">
 <g>
  <path stroke="null" d="m54.50987,17.12925l0,3.43011l3.95213,0l0,-3.43011l1.97608,0l0,3.43011l3.94079,0l0,1.72502l-3.94079,0l0,3.44009l3.94079,0l0,1.71504l-3.94079,0l0,3.44009l-1.97608,0l0,-3.44009l-3.95213,0l0,3.44009l-1.97608,0l0,-3.44009l-3.95216,0l0,-1.71504l3.95216,0l0,-3.44009l-3.95216,0l0,-1.72502l3.95216,0l0,-3.43011l1.97608,0zm3.95213,5.15513l-3.95213,0l0,3.44009l3.95213,0l0,-3.44009zm0,0" fill-rule="nonzero" fill="current" id="svg_1"/>
  <path stroke="null" d="m26.70823,0.18182c9.81218,0 18.38025,4.99035 22.978,12.4145l-0.04326,-0.07157l-11.55393,6.23793c-2.27183,-3.60981 -6.44768,-6.05387 -11.22937,-6.105l-0.15144,0c-7.29154,0 -13.20911,5.54257 -13.20911,12.38385c0,2.15772 0.59499,4.27452 1.74172,6.14591c2.28266,3.7223 6.55588,6.23793 11.46738,6.23793c4.94393,0 9.24961,-2.54632 11.51064,-6.30953l-0.05409,0.08181l11.53227,6.2584c-4.54369,7.36281 -12.99275,12.34293 -22.68593,12.44518l-0.3029,0c-9.84463,0 -18.43434,-5.02101 -23.01048,-12.4861c-2.23937,-3.64049 -3.51593,-7.87411 -3.51593,-12.37361c0,-13.73368 11.87846,-24.85971 26.52642,-24.85971zm0,0" fill-rule="nonzero" fill="current" id="svg_2"/>
 </g>
</svg>