<svg width="207" height="50" xmlns="http://www.w3.org/2000/svg" version="1.1">
 <g>
  <g stroke="null" id="svg_1">
   <path stroke="null" id="svg_2" fill="current" d="m56.75633,9.75841l1.57123,1.08825c2.73259,2.10848 4.30383,4.48902 4.6454,7.20964c2.93753,-0.54412 6.69483,-0.13603 8.33439,0.95222l0,0l1.50292,0.8842l-0.27326,0.54412c-0.4782,1.02023 -0.61483,1.29229 -0.68315,1.42833c-2.66427,5.10116 -7.9245,5.16918 -10.38383,5.10116c-6.21663,14.89539 -19.46967,23.12527 -37.36811,23.12527c-8.26607,0 -14.55102,-2.51658 -18.78653,-7.4817c-5.6018,-6.52949 -5.6018,-15.03143 -5.1236,-17.75205l0,0l0.13663,-0.54412l49.39149,0c2.59596,0 4.57708,-0.68016 5.53349,-1.22428c-1.02472,-1.49634 -1.36629,-3.19673 -1.43461,-4.14894c-0.20494,-2.72062 0.4782,-5.57727 1.8445,-7.61774l0,0l1.09304,-1.56436zm42.79578,3.1582c0.55111,0 1.01767,0.17673 1.39969,0.53019c0.38202,0.35346 0.57302,0.79977 0.57302,1.33894l0,16.82218c0,2.80371 -1.02705,5.17605 -3.08118,7.11708c-2.07919,1.96499 -4.55914,2.94748 -7.43994,2.94748c-2.90585,0 -5.3858,-0.98248 -7.43993,-2.94748c-2.05413,-1.96499 -3.08118,-4.33733 -3.08118,-7.11708c0,-2.77975 1.02705,-5.15208 3.08118,-7.11708c2.05413,-1.96499 4.53408,-2.94748 7.43993,-2.94748c2.49252,0 4.69065,0.73686 6.59449,2.21061l0,-8.96824c0,-0.53917 0.18474,-0.98549 0.55424,-1.33894c0.36949,-0.35346 0.83605,-0.53019 1.39968,-0.53019zm14.73032,8.62676c2.88079,0 5.36075,0.98248 7.43993,2.94748c1.02707,0.9825 1.79422,2.06682 2.30149,3.25301c0.50727,1.18619 0.76717,2.47419 0.77969,3.86407c0,2.80371 -1.02705,5.17605 -3.08118,7.11708c-2.07918,1.96499 -4.55914,2.94748 -7.43993,2.94748c-2.90585,0 -5.3858,-0.98248 -7.43993,-2.94748c-2.05413,-1.96499 -3.08118,-4.33733 -3.08118,-7.11708c0,-2.77975 1.02705,-5.15208 3.08118,-7.11708c2.05413,-1.96499 4.53408,-2.94748 7.43993,-2.94748zm23.24115,0c2.64282,0 4.92863,0.81474 6.85751,2.44425c0.45091,0.38342 0.67636,0.85668 0.67636,1.41982c0,0.53918 -0.18475,0.98848 -0.55424,1.34793c-0.36949,0.35945 -0.83605,0.53917 -1.39969,0.53917c-0.47596,0 -0.90181,-0.14378 -1.27756,-0.43134c-0.63878,-0.51521 -1.30887,-0.90461 -2.01029,-1.16821c-0.70141,-0.2636 -1.46544,-0.39539 -2.2921,-0.39539c-0.91434,0 -1.77231,0.16475 -2.57392,0.49424c-0.80161,0.3295 -1.50301,0.7788 -2.10422,1.34793c-0.60121,0.56913 -1.07403,1.2371 -1.41847,2.00393c-0.34445,0.76683 -0.51666,1.58756 -0.51666,2.46222c0,0.87466 0.17222,1.69539 0.51666,2.46222c0.34444,0.76683 0.81726,1.4348 1.41847,2.00392c0.60121,0.56913 1.30261,1.01844 2.10422,1.34793c0.80161,0.3295 1.65958,0.49424 2.57392,0.49424c0.82666,0 1.59069,-0.1288 2.2921,-0.38641c0.70141,-0.25761 1.36524,-0.64401 1.9915,-1.15922c0.3507,-0.25162 0.76403,-0.38341 1.23999,-0.39539c0.56363,0 1.03019,0.17673 1.39968,0.53019c0.36949,0.35346 0.55424,0.79977 0.55424,1.33894c0,0.52719 -0.20666,0.98848 -0.61999,1.38388c-1.94141,1.62951 -4.22722,2.44425 -6.85751,2.44425c-2.90585,0 -5.3858,-0.98248 -7.43994,-2.94748c-2.05413,-1.96499 -3.08118,-4.33733 -3.08118,-7.11708c0,-2.77975 1.02705,-5.15208 3.08118,-7.11708c2.05413,-1.96499 4.53409,-2.94748 7.43994,-2.94748zm11.72428,-8.62676c0.53858,0 0.99888,0.18272 1.3809,0.54816c0.38202,0.36544 0.57303,0.81175 0.57303,1.33894l0,14.01848l11.23505,-6.99127c0.31313,-0.19171 0.66383,-0.28756 1.05211,-0.28756c0.27555,0 0.53232,0.04793 0.7703,0.14378c0.23798,0.09585 0.44464,0.23065 0.62,0.40438c0.17535,0.17373 0.31626,0.37443 0.42272,0.60207c0.10647,0.22765 0.1597,0.46728 0.1597,0.7189c0,0.67097 -0.2505,1.16821 -0.75151,1.49171l-7.87205,4.8885l8.07872,8.69865c0.36323,0.38341 0.54484,0.82073 0.54484,1.31199c0,0.25161 -0.05323,0.49124 -0.1597,0.7189c-0.10646,0.22765 -0.24737,0.42834 -0.42272,0.60207c-0.17535,0.17373 -0.38202,0.30853 -0.62,0.40438c-0.23798,0.09585 -0.49474,0.14378 -0.7703,0.14378c-0.52606,0 -0.96443,-0.16175 -1.31514,-0.48525l-8.67992,-9.32768l-2.2921,1.43779l0,6.48804c0,0.51521 -0.191,0.95852 -0.57303,1.32996c-0.38202,0.37143 -0.84231,0.55715 -1.3809,0.55715c-0.55111,0 -1.01767,-0.18571 -1.39968,-0.55715c-0.38202,-0.37143 -0.57303,-0.81475 -0.57303,-1.32996l0,-24.98166c0,-0.52719 0.191,-0.9735 0.57303,-1.33894c0.38202,-0.36544 0.84857,-0.54816 1.39968,-0.54816zm28.85867,8.62676c2.88079,0 5.36075,0.98248 7.43993,2.94748c1.02707,0.97051 1.79735,2.05184 2.31089,3.24402c0.51353,1.19218 0.7703,2.48318 0.7703,3.87305c0,0.53917 -0.19101,0.98549 -0.57303,1.33894c-0.38202,0.35346 -0.84858,0.53019 -1.39968,0.53019l-14.87987,0c0.21293,0.65899 0.52605,1.26106 0.93939,1.80623c0.41333,0.54517 0.89867,1.01244 1.45604,1.40185c0.55737,0.3894 1.1711,0.69193 1.8412,0.90761c0.6701,0.21567 1.36837,0.32351 2.09483,0.32351c0.82666,0 1.58443,-0.11982 2.27331,-0.35945c0.68889,-0.23963 1.32766,-0.59908 1.91635,-1.07835c0.37576,-0.29954 0.80787,-0.4553 1.29635,-0.46728c0.56363,0 1.03019,0.17673 1.39968,0.53019c0.36949,0.35346 0.55424,0.79977 0.55424,1.33894c0,0.52719 -0.18788,0.9765 -0.56363,1.34793c-1.9414,1.62951 -4.23348,2.44425 -6.8763,2.44425c-2.90585,0 -5.3858,-0.98248 -7.43993,-2.94748c-2.05413,-1.96499 -3.08118,-4.33733 -3.08118,-7.11708c0,-2.77975 1.02705,-5.15208 3.08118,-7.11708c2.05413,-1.96499 4.53408,-2.94748 7.43993,-2.94748zm23.20357,0c0.55111,0 1.14291,0.03594 1.77544,0.10784c0.63252,0.07189 1.21493,0.20069 1.74726,0.3864c0.53232,0.18572 0.97383,0.44032 1.32453,0.76383c0.35071,0.32351 0.52606,0.74286 0.52606,1.25807c0,0.2636 -0.05323,0.50921 -0.1597,0.73687c-0.10646,0.22765 -0.24737,0.42834 -0.42272,0.60207c-0.17535,0.17373 -0.38201,0.30853 -0.61999,0.40438c-0.23798,0.09585 -0.49474,0.14378 -0.7703,0.14378c-0.23798,0 -0.51353,-0.0659 -0.82666,-0.1977c-0.78909,-0.29954 -1.64705,-0.44931 -2.57391,-0.44931c-0.91434,0 -1.77231,0.16475 -2.57391,0.49424c-0.80162,0.3295 -1.49988,0.7788 -2.09483,1.34793c-0.59495,0.56913 -1.06463,1.2371 -1.40908,2.00393c-0.34444,0.76683 -0.51666,1.58756 -0.51666,2.46222l0,8.19542c0,0.51521 -0.191,0.95553 -0.57303,1.32097c-0.38202,0.36544 -0.84231,0.54816 -1.3809,0.54816c-0.55111,0 -1.01767,-0.18272 -1.39968,-0.54816c-0.38202,-0.36544 -0.57303,-0.80576 -0.57303,-1.32097l0,-16.39084c0,-0.51521 0.191,-0.95553 0.57303,-1.32097c0.38202,-0.36544 0.84857,-0.54816 1.39968,-0.54816c0.53858,0 0.99888,0.18272 1.3809,0.54816c0.38202,0.36544 0.57303,0.80576 0.57303,1.32097l0,0.35945c0.93939,-0.7189 1.96018,-1.27005 3.0624,-1.65346c1.10222,-0.38342 2.27957,-0.57512 3.53209,-0.57512zm-110.30639,3.75623c-0.92686,0 -1.79109,0.16774 -2.5927,0.50323c-0.80161,0.33548 -1.49675,0.78779 -2.08544,1.35692c-0.58868,0.56913 -1.05524,1.2371 -1.39969,2.00392c-0.34444,0.76683 -0.51666,1.58157 -0.51666,2.44425c0,0.86268 0.17222,1.67742 0.51666,2.44425c0.34444,0.76683 0.811,1.4348 1.39969,2.00392c0.58868,0.56913 1.28382,1.02143 2.08544,1.35692c0.80161,0.33548 1.66584,0.50323 2.5927,0.50323c0.91434,0 1.77231,-0.16774 2.57392,-0.50323c0.80161,-0.33549 1.49988,-0.79078 2.09483,-1.3659c0.59495,-0.57512 1.06463,-1.24309 1.40908,-2.00392c0.34444,-0.76084 0.51666,-1.57258 0.51666,-2.43526c0,-0.86268 -0.17222,-1.67443 -0.51666,-2.43526c-0.34444,-0.76084 -0.81413,-1.42881 -1.40908,-2.00392c-0.59495,-0.57512 -1.29322,-1.03042 -2.09483,-1.3659c-0.80161,-0.33548 -1.65958,-0.50323 -2.57392,-0.50323zm23.27872,0c-0.92687,0 -1.79109,0.16774 -2.59271,0.50323c-0.80161,0.33548 -1.49675,0.78779 -2.08544,1.35692c-0.58868,0.56913 -1.05524,1.2371 -1.39968,2.00392c-0.34444,0.76683 -0.51666,1.58157 -0.51666,2.44425c0,0.86268 0.17222,1.67742 0.51666,2.44425c0.34444,0.76683 0.811,1.4348 1.39968,2.00392c0.58868,0.56913 1.28382,1.02143 2.08544,1.35692c0.80161,0.33548 1.66584,0.50323 2.59271,0.50323c0.91434,0 1.7723,-0.16774 2.57391,-0.50323c0.80161,-0.33549 1.49988,-0.79078 2.09483,-1.3659c0.59495,-0.57512 1.06464,-1.24309 1.40908,-2.00392c0.34444,-0.76084 0.51666,-1.57258 0.51666,-2.43526c0,-0.86268 -0.17222,-1.67443 -0.51666,-2.43526c-0.34444,-0.76084 -0.81413,-1.42881 -1.40908,-2.00392c-0.59495,-0.57512 -1.29322,-1.03042 -2.09483,-1.3659c-0.80161,-0.33548 -1.65957,-0.50323 -2.57391,-0.50323zm63.8241,0c-0.71394,0 -1.40908,0.10784 -2.08544,0.32351c-0.67636,0.21567 -1.29635,0.5182 -1.85998,0.90761c-0.56363,0.3894 -1.05211,0.85668 -1.46544,1.40185c-0.41333,0.54517 -0.72019,1.14724 -0.9206,1.80623l12.66292,0c-0.21293,-0.65899 -0.52919,-1.26106 -0.94878,-1.80623c-0.41959,-0.54517 -0.90807,-1.01244 -1.46544,-1.40185c-0.55737,-0.3894 -1.1711,-0.69193 -1.84119,-0.90761c-0.6701,-0.21567 -1.3621,-0.32351 -2.07604,-0.32351zm-164.93493,-9.14773l0,6.80155l-7.51461,0l0,-6.80155l7.51461,0zm8.8809,0l0,6.80155l-7.51461,0l0,-6.80155l7.51461,0zm8.8809,0l0,6.80155l-7.51461,0l0,-6.80155l7.51461,0zm8.8809,0l0,6.80155l-7.51461,0l0,-6.80155l7.51461,0zm8.88091,0l0,6.80155l-7.51461,0l0,-6.80155l7.51461,0zm-8.88091,-8.16186l0,6.80155l-7.51461,0l0,-6.80155l7.51461,0zm-8.8809,0l0,6.80155l-7.51461,0l0,-6.80155l7.51461,0zm-8.8809,0l0,6.80155l-7.51461,0l0,-6.80155l7.51461,0zm17.7618,-8.16186l0,6.80155l-7.51461,0l0,-6.80155l7.51461,0z"/>
  </g>
 </g>
</svg>