<?xml version="1.0" standalone="no"?>
<svg xmlns="http://www.w3.org/2000/svg" id="body_1" width="92" height="87">
<g transform="matrix(0.08969073 0 0 0.08969073 0.25772947 -0)">
    <path d="M3.9 898.3C 0 885.6 0 873.4 0 860.5L0 860.5L0 764.2C 0 731.6 0.6 694.5 8.2 663C 36.2 656.1 68 655.7 101.399994 655.7L101.399994 655.7L174.29999 655.7C 175.37036 660.69763 175.93985 665.7895 175.99998 670.9C 175.88222 676.00684 175.31334 681.0933 174.29999 686.10004C 164.09999 689.4 153.9 689.4 143.4 689.4L143.4 689.4L103 689.4C 81.2 689.4 62.3 689.4 43.5 693.30005C 40.8 713.4 40.2 737.30005 40.2 764.30005L40.2 764.30005L149.4 764.30005C 150.52805 769.18475 151.06522 774.1872 151 779.2001C 151.03012 784.4756 150.49371 789.739 149.4 794.9001C 138.9 798.2001 129 798.2001 117.799995 798.2001L117.799995 798.2001L40.2 798.2001L40.2 898.2001C 34.379337 899.4082 28.444212 899.9782 22.5 899.9001C 16.272991 899.75134 10.060919 899.217 3.9 898.3z" stroke="none" fill="current" fill-rule="nonzero" />
    <path d="M199.9 898C 198.46721 886.89307 197.83224 875.69775 198 864.5L198 864.5L198 689.6C 198 678 198 666.6 201.6 655.3C 211.6886 653.1681 222.11142 653.1681 232.20001 655.3C 235.50002 666.5 235.50002 678.3 235.50002 689.89996L235.50002 689.89996L235.50002 864.1C 235.50002 874.89996 235.80002 885.19995 233.50002 898C 228.24934 899.3962 222.8327 900.06903 217.40001 900C 211.50725 900.04407 205.63084 899.3725 199.9 898z" stroke="none" fill="current" fill-rule="nonzero" />
    <path d="M273.2 967.7L306.40002 891.8L259.8 778.7C 254.59999 765.60004 246.59999 747.5 246.29999 733.10004C 252.43164 731.47534 258.7575 730.7014 265.09998 730.80005C 271.06107 730.71027 277.00922 731.3824 282.8 732.80005L282.8 732.80005L326.8 847.50006L350.59998 795.60004C 358.09998 778.7 368.3 750.80005 373.19998 732.80005C 379.26346 731.3899 385.47522 730.7184 391.69998 730.80005C 397.75922 730.7282 403.8043 731.3999 409.69998 732.80005C 407.49997 753.80005 395.59998 778.4 383.4 806.10004L383.4 806.10004L313 967.7C 306.6257 969.07294 300.12027 969.7436 293.6 969.7C 286.74753 969.7782 279.9069 969.10754 273.2 967.7z" stroke="none" fill="current" fill-rule="nonzero" />
    <path d="M457.8 898L423.9 771.1C 419.9 756.69995 416.3 743.5 415.6 733C 422.2851 731.429 429.1329 730.657 436 730.7C 442.32123 730.67206 448.62613 731.34283 454.8 732.7L454.8 732.7L484.4 859.60004L530.8 734C 535.75256 732.86255 540.8184 732.29224 545.89996 732.3C 551.3123 732.28253 556.7106 732.85254 562 734L562 734L608.4 859.6L637.9 732.69995C 643.96893 731.3222 650.1769 730.65106 656.4 730.69995C 663.36694 730.64075 670.316 731.41284 677.10004 732.99994C 676.10004 745.0999 672.9 757.89996 669.10004 771.39996L669.10004 771.39996L636.3 898C 627.1 900.3 620.2 901.3 613.6 901.3C 606.99994 901.3 599.39996 900.3 589.19995 898L589.19995 898L546.4 783.9L504.7 898C 495.2 900.3 488.6 901.3 481.7 901.3C 474.80002 901.3 467.9 900.4 457.8 898z" stroke="none" fill="current" fill-rule="nonzero" />
    <path d="M692.5 844.4L692.5 831.6C 692.5 806.69995 693.6 767.19995 704.1 742.1C 728.39996 730.3 749.19995 725 768.8 725C 811.2 725 844.8 736.2 844.8 782.9L844.8 782.9L844.8 852.30005C 844.808 867.53735 843.93994 882.7624 842.2 897.9C 837.68616 899.2279 833.0051 899.9014 828.3 899.9C 822.9073 899.8537 817.53815 899.18256 812.3 897.9L812.3 897.9L809.3 881.9C 797.39996 894 776.39996 901.5 754.3 901.5C 732.2 901.5 692.5 892.2 692.5 844.4zM807 852.7L807 766.5C 799.5 760.2 784 757.3 768.5 757.3C 753 757.3 737.3 760.3 729.8 766.5L729.8 766.5L729.8 859.2C 738 865.8 748.8 868.7 760 868.7C 776.4 868.8 794.1 862.6 807 852.7z" stroke="none" fill="current" fill-rule="nonzero" />
    <path d="M883.6 967.7L916.8 891.8L870.1 778.6C 864.8 765.39996 856.89996 747.39996 856.6 733C 862.6988 731.38184 868.9908 730.608 875.3 730.7C 881.2937 730.6168 887.2741 731.2888 893.1 732.7L893.1 732.7L937.1 847.4L960.8 795.4C 968.3 778.60004 978.6 750.7 983.5 732.7C 989.5635 731.28986 995.77527 730.61835 1002 730.7C 1008.0586 730.6401 1014.10236 731.3116 1020 732.7C 1017.7 753.7 1005.9 778.3 993.7 806L993.7 806L923.4 967.7C 917.02576 969.07294 910.52026 969.7436 904 969.7C 897.14746 969.7782 890.3069 969.10754 883.6 967.7z" stroke="none" fill="current" fill-rule="nonzero" />
    <path d="M429.4 374.9C 434.97296 366.41592 438.24652 356.6297 438.9 346.5L438.9 346.5L394.3 355.7C 392.65143 356.0146 390.97818 356.18192 389.3 356.2C 376.58182 355.97803 366.0404 346.27728 364.76462 333.62134C 363.4888 320.9654 371.88202 309.3559 384.3 306.6L384.3 306.6L485.5 285.80002C 501.11533 282.58438 514.8174 273.30582 523.6 260C 529.2228 251.40704 532.59296 241.53735 533.39996 231.3L533.39996 231.3L488.59998 240.5C 486.95142 240.8146 485.27817 240.98193 483.59998 241C 471.61902 241.03119 461.3003 232.55809 459 220.8C 456.3 207.2 465.5 194.1 479.1 191.3L479.1 191.3L579.1 170.8C 598.6 166.8 610 150.8 615.1 141.7C 619.60236 133.52151 622.6477 124.62222 624.1 115.399994L624.1 115.399994L309.5 180L309.5 417.8L390.3 401.19998C 406.30383 397.96188 420.36737 388.50226 429.4 374.9z" stroke="none" fill="current" fill-rule="nonzero" />
    <path d="M510 0.3C 422 0.3 345.1 18.099998 309.4 43.7L309.4 43.7L309.4 128.8L654.4 58C 661.71027 56.52057 668.84814 61.204803 670.4 68.5L670.4 68.5L672.7 79.8C 678.5 108.100006 673.5 139.5 658.8 166C 642.8 194.8 618 213.9 588.89996 219.9L588.89996 219.9L583.39996 221C 584.75604 245.03539 578.1097 268.8427 564.49994 288.7C 548.19995 312.90002 522.7999 329.2 494.29993 335.1L494.29993 335.1L488.99994 336.2C 491.8746 390.65973 454.5882 439.07263 401.19995 450.2L401.19995 450.2L309.4 469L309.4 491.8C 345.1 517.5 422 535.3 510 535.3C 598 535.3 674.9 517.5 710.6 491.8L710.6 491.8L710.6 43.7C 674.9 18.1 598 0.3 510 0.3z" stroke="none" fill="current" fill-rule="nonzero" />
</g>
</svg>