<svg width="106" height="50" xmlns="http://www.w3.org/2000/svg">
 <g>
  <path stroke="null" id="svg_1" fill="current" d="m60.6225,15.828c-2.49014,0 -4.34451,1.17758 -4.34451,4.01184c0,2.13533 1.22216,3.61803 4.21015,3.61803c2.53285,0 4.25331,-1.4377 4.25331,-3.70673c0,-2.57114 -1.53938,-3.92313 -4.11895,-3.92313zm-4.97851,20.01248c-0.5895,0.69635 -1.17678,1.43684 -1.17678,2.30974c0,1.74281 2.30729,2.26732 5.4768,2.26732c2.62495,0 6.20111,-0.17741 6.20111,-2.52829c0,-1.39742 -1.72045,-1.48355 -3.89427,-1.61468l-6.60686,-0.43409zm13.39747,-19.88093c0.81329,1.00275 1.67463,2.39845 1.67463,4.40351c0,4.83889 -3.93787,7.67229 -9.63979,7.67229c-1.44995,0 -2.76243,-0.17398 -3.57616,-0.39167l-1.49444,2.30974l4.43527,0.2614c7.83125,0.4808 12.44626,0.69935 12.44626,6.49513c0,5.01458 -4.57008,7.8467 -12.44626,7.8467c-8.19207,0 -11.31531,-2.00549 -11.31531,-5.44911c0,-1.96178 0.90539,-3.00609 2.4897,-4.44722c-1.494,-0.60808 -1.9914,-1.69738 -1.9914,-2.87539c0,-0.95989 0.49741,-1.83108 1.31336,-2.66027c0.81418,-0.82705 1.71912,-1.65624 2.80558,-2.61528c-2.21741,-1.04645 -3.89293,-3.31334 -3.89293,-6.54013c0,-5.01244 3.44046,-8.4552 10.3641,-8.4552c1.94691,0 3.12413,0.17227 4.16522,0.43581l8.82695,0l0,3.70416l-4.16477,0.30554zm12.12771,-7.92212c-2.58046,0 -4.07401,-1.43984 -4.07401,-3.92571c0,-2.48244 1.49311,-3.83529 4.07401,-3.83529c2.62495,0 4.11895,1.35285 4.11895,3.83529c0,2.48587 -1.49355,3.92571 -4.11895,3.92571zm-5.83984,26.19865l0,-3.44233l2.30907,-0.30425c0.63399,-0.08785 0.72386,-0.21812 0.72386,-0.87333l0,-12.81714c0,-0.47823 -0.13525,-0.78506 -0.5895,-0.91447l-2.44343,-0.82919l0.49741,-3.53018l9.37018,0l0,18.09098c0,0.69849 0.0436,0.78548 0.72475,0.87376l2.30818,0.30425l0,3.4419l-12.90051,0zm30.79955,-1.6901c-1.94691,0.9149 -4.79832,1.74323 -7.37922,1.74323c-5.38604,0 -7.42193,-2.09034 -7.42193,-7.01922l0,-11.42058c0,-0.2614 0,-0.43581 -0.36349,-0.43581l-3.16774,0l0,-3.88114c3.98414,-0.43709 5.56712,-2.35517 6.06497,-7.10706l4.30047,0l0,6.19217c0,0.30425 0,0.43581 0.3626,0.43581l6.3813,0l0,4.35937l-6.7439,0l0,10.4187c0,2.572 0.63444,3.57389 3.07742,3.57389c1.26887,0 2.58001,-0.30425 3.66603,-0.69678l1.22349,3.837"/>
  <path stroke="null" id="svg_2" fill="current" d="m45.53378,22.87113l-20.2626,-21.57821a2.98825,3.18248 0 0 0 -4.22668,0l-4.20751,4.48145l5.33747,5.68392a3.548,3.77861 0 0 1 3.65168,0.90603a3.55323,3.78418 0 0 1 0.84333,3.91268l5.14319,5.4784c1.24452,-0.4565 2.68071,-0.16098 3.67433,0.89907a3.55497,3.78603 0 0 1 0,5.35593a3.55628,3.78742 0 0 1 -5.804,-4.11959l-4.79688,-5.10866l-0.00044,13.44434a3.59287,3.82639 0 0 1 0.94047,0.71629a3.55628,3.78742 0 0 1 0,5.35686c-1.38958,1.4799 -3.64166,1.4799 -5.02906,0a3.55628,3.78742 0 0 1 1.16394,-6.1831l0,-13.56959a3.51272,3.74103 0 0 1 -1.16394,-0.8267c-1.05242,-1.11943 -1.30551,-2.76402 -0.76623,-4.14047l-5.26124,-5.60413l-13.89319,14.79526a2.98956,3.18387 0 0 0 0,4.50279l20.2626,21.57867a2.98912,3.1834 0 0 0 4.22668,0l20.16808,-21.478a2.99086,3.18526 0 0 0 0,-4.50325"/>
 </g>
</svg>