<svg width="197" height="50" xmlns="http://www.w3.org/2000/svg" version="1.0">
 <g>
  <g stroke="null" id="svg_1" fill="current" transform="translate(0 306) scale(0.1 -0.1)">
   <path stroke="null" id="svg_2" d="m586.57337,3059.51003c-22.64501,-4.95557 -55.48028,-25.03866 -55.48028,-33.90652c0,-4.43393 20.38051,-23.21293 25.19257,-23.21293c2.54756,0 10.75638,2.86901 18.39907,6.52049c44.44083,20.86555 95.39211,-8.86786 95.39211,-55.29372c0,-41.47029 -43.02552,-69.37796 -89.44779,-57.90191c-6.22738,1.56492 -38.77958,14.86671 -72.18097,29.73341c-96.52436,42.77438 -131.62412,51.90306 -196.72853,51.64224c-40.47796,-0.26082 -66.51972,-4.17311 -107.5638,-16.69244c-56.0464,-17.21408 -69.35034,-26.8644 -69.35034,-50.07733c0,-10.17196 3.67981,-17.73572 26.89095,-54.51126c14.71926,-23.47375 30.00464,-45.6434 33.68445,-48.77323c11.03944,-9.65032 28.58933,-10.17196 47.27146,-1.56492c18.68213,8.86786 48.96984,27.64686 73.03016,45.38258c14.43619,10.6936 18.9652,12.78015 22.92807,10.6936c14.43619,-7.04212 9.058,-14.34507 -29.43851,-40.94865c-39.34571,-27.12522 -71.33178,-42.51356 -88.88167,-42.51356c-16.7007,0 -33.68445,7.04212 -44.44083,18.51818c-4.81206,4.95557 -18.39907,25.03866 -30.85383,44.86094c-12.17169,19.56146 -22.92807,35.73226 -24.06032,35.73226c-3.39675,0 -33.96752,-24.77784 -45.00696,-36.51472c-58.59396,-62.85748 -83.50348,-148.66707 -70.19953,-241.7796c1.98144,-14.86671 5.37819,-28.69014 7.35963,-30.77669c2.83063,-2.86901 10.19025,-3.91229 31.70301,-3.91229c30.85383,0 39.06264,2.34737 39.06264,11.21523c0,10.43278 13.30394,32.08079 25.47564,41.73111c35.94895,28.1685 88.03248,21.12637 113.22505,-15.64916c4.24594,-6.25967 8.77494,-15.64916 9.90719,-21.12637c3.11369,-15.38835 4.81206,-16.1708 37.0812,-16.1708c30.57076,0 37.93039,2.60819 37.93039,12.78015c0,8.60704 8.49188,23.47375 18.9652,34.42816c40.76102,41.47029 112.37586,24.25621 128.7935,-30.77669c1.41531,-5.47721 4.24594,-11.47605 5.66125,-13.04097c3.96288,-4.69475 60.00928,-4.69475 63.97215,0c1.41531,1.56492 3.67981,13.04097 4.81206,25.29948c5.66125,63.37912 24.90951,112.93481 54.63109,141.88576c5.66125,5.47721 19.53132,16.43162 30.2877,24.51703c76.70997,56.59781 116.90487,112.15235 122.28306,169.2718c5.37819,59.20601 -34.53364,116.32546 -91.14617,129.88807c-18.39907,4.17311 -41.89327,4.69475 -59.16009,1.04328zm-82.37123,-189.09408c8.20882,-2.86901 13.02088,-15.12753 9.62413,-24.25621c-1.69838,-4.43393 -4.81206,-8.0854 -7.07657,-8.0854c-7.35963,0 -35.09977,14.08425 -35.09977,17.99654c0,10.95442 18.68213,19.03982 32.5522,14.34507z"/>
   <path stroke="null" id="svg_3" d="m1586.91671,2792.43095c0,-26.60358 -0.84919,-48.25159 -1.69838,-48.25159c-0.84919,0 -5.09513,2.08656 -9.058,4.95557c-9.62413,6.25967 -26.89095,10.6936 -41.89327,10.6936c-58.59396,0 -97.37355,-55.0329 -86.61717,-122.84595c7.92575,-51.12061 38.21346,-78.50664 82.65429,-74.59435c19.24826,1.56492 31.98608,6.52049 47.55452,19.03982c11.60557,9.12868 14.71926,8.34622 14.71926,-4.17311c0,-9.3895 7.92575,-13.04097 27.17401,-13.04097l18.11601,0l0,138.23429l0,138.23429l-25.47564,0l-25.47564,0l0,-48.25159zm-18.9652,-71.98616c3.39675,-1.56492 9.058,-5.47721 12.73782,-8.34622c5.94432,-5.21639 6.22738,-7.04212 6.22738,-48.25159l0,-42.77438l-10.47332,-8.86786c-23.21114,-19.56146 -58.02784,-17.4749 -70.19953,3.91229c-7.07657,12.78015 -10.47332,41.73111 -7.35963,59.98847c5.66125,32.60243 20.38051,47.20831 47.55452,47.20831c8.49188,0 18.11601,-1.3041 21.51276,-2.86901z"/>
   <path stroke="null" id="svg_4" d="m1685.98863,2702.44825l0,-138.23429l25.47564,0l25.47564,0l0,138.23429l0,138.23429l-25.47564,0l-25.47564,0l0,-138.23429z"/>
   <path stroke="null" id="svg_5" d="m931.62672,2836.50943c-3.11369,-0.52164 -12.73782,-2.34737 -21.2297,-3.91229c-48.40371,-8.86786 -90.29698,-46.42586 -103.31786,-92.33007c-5.37819,-19.30064 -5.37819,-60.77092 0,-79.2891c14.15313,-49.29487 55.76334,-84.76631 112.37586,-95.72073c41.61021,-8.34622 97.09048,-0.78246 127.66125,16.95326l13.30394,8.0854l0,54.77208l0,54.77208l-48.12065,0l-48.40371,0l0.84919,-17.4749l0.84919,-17.73572l22.64501,-1.3041l22.64501,-1.3041l0.84919,-23.99539l0.84919,-23.99539l-10.19025,-3.91229c-39.62877,-15.38835 -84.63573,-9.3895 -114.3573,15.38835c-22.07889,18.51818 -34.53364,57.90191 -29.15545,91.02598c4.24594,25.29948 13.30394,41.47029 30.85383,56.33699c20.09745,16.95326 37.64733,21.90883 71.89791,20.34391c21.51276,-1.04328 27.45708,-2.34737 45.85615,-10.6936c11.60557,-5.21639 23.77726,-9.65032 27.17401,-9.65032c3.96288,0 8.77494,4.43393 15.85151,14.34507c5.37819,8.0854 9.90719,15.12753 9.90719,15.64916c0,3.91229 -37.36427,22.95211 -53.49884,27.64686c-17.83295,4.95557 -63.12297,8.60704 -75.29466,5.99885z"/>
   <path stroke="null" id="svg_6" d="m1183.2694,2756.17705c-4.529,-1.82574 -14.43619,-9.65032 -21.51276,-16.95326l-12.73782,-13.56261l-1.69838,12.25851c-1.69838,15.64916 -7.07657,19.30064 -28.0232,19.30064l-16.41763,0l0,-96.50318l0,-96.50318l25.47564,0l25.47564,0l0,61.03174c0,58.94519 0.28306,61.03174 6.51044,69.63878c11.32251,15.64916 23.21114,20.86555 44.44083,20.0831l18.39907,-0.78246l2.2645,19.30064c1.41531,12.51933 1.13225,20.34391 -0.56613,21.90883c-4.81206,4.43393 -31.98608,4.95557 -41.61021,0.78246z"/>
   <path stroke="null" id="svg_7" d="m1298.47589,2755.65541c-17.26682,-4.17311 -40.19489,-15.12753 -47.27146,-22.16965c-4.529,-4.69475 -4.529,-5.47721 0.28306,-13.82343c8.77494,-14.86671 16.13457,-16.1708 37.93039,-6.52049c43.30858,19.30064 71.04872,8.86786 71.04872,-27.12522l0,-11.47605l-22.64501,-1.56492c-43.59165,-3.12983 -71.33178,-12.51933 -88.5986,-30.25505c-21.79582,-22.43047 -15.85151,-58.42355 12.17169,-73.02944c24.90951,-12.78015 61.99072,-9.65032 88.88167,7.56376l15.28538,9.91114l1.98144,-6.7813c3.39675,-12.51933 9.34107,-16.1708 26.04176,-16.1708l15.00232,0l0,69.8996c0,80.85402 -1.41531,88.15696 -21.51276,106.41432c-19.53132,18.25736 -53.21577,23.99539 -88.5986,15.12753zm61.99072,-125.97578c0,-14.34507 -0.56613,-15.90998 -9.90719,-23.47375c-24.34339,-19.56146 -66.51972,-14.86671 -66.51972,7.56376c0,17.99654 24.62645,30.25505 61.70765,31.03751l14.71926,0.26082l0,-15.38835z"/>
   <path stroke="null" id="svg_8" d="m1847.33433,2755.91623c-32.83527,-8.60704 -57.46171,-30.77669 -66.80278,-61.03174c-7.07657,-22.43047 -4.529,-59.72765 5.94432,-80.5932c19.53132,-39.64455 66.23666,-59.46683 118.03712,-50.33815c18.68213,3.39065 46.70533,15.64916 54.91415,23.99539c4.81206,4.69475 4.529,5.47721 -3.67981,14.86671c-4.529,5.21639 -11.03944,9.91114 -14.15313,10.43278c-2.83063,0.52164 -13.58701,-2.86901 -23.77726,-7.30294c-30.2877,-13.04097 -63.97215,-8.86786 -78.40835,9.91114c-6.22738,7.82458 -15.00232,34.16734 -12.73782,37.81882c0.56613,1.04328 31.70301,1.82574 68.78422,1.82574l67.93503,0l1.69838,6.7813c5.66125,20.34391 -6.7935,57.64109 -24.62645,73.81189c-21.2297,19.82228 -60.85847,27.90768 -93.12761,19.82228zm50.66821,-35.21062c7.64269,-3.39065 13.02088,-8.60704 17.26682,-16.69244c10.75638,-20.86555 10.75638,-21.12637 -42.17633,-21.90883l-46.42227,-0.78246l1.98144,8.34622c6.22738,29.21177 40.76102,44.60012 69.35034,31.03751z"/>
  </g>
 </g>
</svg>