<svg viewBox="0 0 277 50" xmlns="http://www.w3.org/2000/svg" xml:space="preserve" enable-background="new 0 0 1000 166.98" version="1.1">
 <g>
  <path stroke="null" fill="current" id="svg_1" d="m76.47202,33.0384l0,-32.84381l-4.85271,0l0,13.57537l-14.33507,0l0,-13.57537l-4.8977,0l0,32.84381l4.8977,0l0,-14.74322l14.33507,0l0,14.74322l4.85271,0l0,0zm14.05571,0l0,-32.84381l-4.89798,0l0,32.84381l4.89798,0l0,0zm29.3299,-9.92626c0,4.28221 -2.60537,10.07242 -11.90803,10.07242c-1.84237,0 -4.8977,-0.09685 -8.26829,-0.14557l0,-32.8444c2.38177,-0.04872 5.84207,-0.14587 9.52708,-0.14587c6.60563,0 10.02094,2.91947 10.02094,7.97944c0,3.35708 -2.06707,6.32527 -5.16768,7.49282l0,0.09774c3.95388,0.82769 5.79597,4.08732 5.79597,7.49341l0,0zm-5.75236,-14.25629c0,-2.67645 -1.39268,-4.57424 -5.70626,-4.57424c-1.34823,0 -2.6512,0.04872 -3.81945,0.09745l0,9.73196c0.80855,0.04872 1.57239,0.04872 2.60592,0.04872c4.53884,-0.0003 6.91978,-1.99583 6.91978,-5.30389l0,0zm0.5844,14.35344c0,-3.74596 -3.09978,-5.109 -7.36919,-5.109c-0.49468,0 -2.06652,0 -2.74091,0.04902l0,10.46101c0.76439,0.14587 1.97653,0.24361 3.54947,0.24361c4.44884,0 6.56064,-2.3351 6.56064,-5.64465l0,0zm28.39851,9.82911l0,-4.52492l-11.09892,0l0,-10.21859l10.55979,0l0,-4.33033l-10.55979,0l0,-9.34278l11.09892,0l0,-4.42748l-15.99745,0l0,32.84351l15.99745,0.0006l0,0zm28.34523,0l-6.15567,0l-9.43682,-14.20816l-0.22443,0l0,14.20816l-4.89798,0l0,-32.84381c2.20179,-0.14587 4.71799,-0.19459 8.13302,-0.19459c6.29121,0 10.60534,2.38442 10.60534,8.90458c0,5.25516 -3.64057,8.61254 -8.58382,9.19601c0.85465,1.16755 1.79765,2.43314 2.56093,3.50324l7.99942,11.43456l0,0zm-7.09949,-23.55035c0,-3.60069 -2.06624,-5.15772 -6.1565,-5.15772c-0.94299,0 -1.84181,0.04872 -2.56093,0.09715l0,10.41288c0.44969,0.04872 1.30324,0.09745 2.38122,0.09745c3.95471,0.0003 6.33621,-2.18953 6.33621,-5.44976l0,0zm37.7307,23.55035l0,-32.84381l-4.76437,0l0,9.73137c0,4.81726 0.13582,11.87307 0.31635,15.61933c-1.12353,-2.38472 -2.33677,-5.01185 -3.68639,-7.44469l-10.01984,-17.906l-6.42648,0l0,32.84381l4.76492,0l0,-11.04538c0,-4.67139 -0.08972,-11.33712 -0.27053,-14.54862c0.9441,2.18953 2.02208,4.52492 3.37142,6.90904l10.38036,18.68496l6.33455,0l0,0zm32.39131,0l-5.43711,0l-2.3365,-7.251l-12.26745,0l-2.3365,7.251l-4.94215,0l10.87311,-32.84381l5.43766,0l11.00893,32.84381l0,0zm-9.07712,-11.48359l-3.45892,-10.31514c-0.58495,-1.7029 -0.98882,-3.26023 -1.34823,-5.06087l-0.08944,0c-0.31608,1.65448 -0.81049,3.45512 -1.39434,5.20644l-3.41503,10.16927l9.70597,0.0003l0,0zm29.60789,-16.88402l0,-4.4762l-21.5701,0l0,4.4762l8.31356,0l0,28.36761l4.89715,0l0,-28.36761l8.35939,0l0,0zm21.06465,28.36761l0,-4.52492l-11.09947,0l0,-10.21859l10.55952,0l0,-4.33033l-10.55952,0l0,-9.34278l11.09947,0l0,-4.42748l-15.998,0l0,32.84351l15.998,0.0006l0,0zm-258.32085,-16.41174l-8.8687,16.65057l-8.8618,-16.65087l8.86511,-16.62636l0.00414,0.00747l0.00083,-0.00687l17.73078,0l8.87008,16.62576l-17.74044,0.0003zm17.73105,33.2856l-0.00304,-0.00598l-0.00193,0.00478l-17.73078,0l-8.87036,-16.62516l17.74154,-0.0012l8.86787,-16.65087l8.8618,16.65177l-8.86511,16.62666z"/>
 </g>
</svg>