<svg viewBox="0 0 48 50" xmlns="http://www.w3.org/2000/svg" version="1.0">
 <g>
  <g stroke="null" id="svg_1">
   <path stroke="null" d="m16.01463,1.55596l0,2.55596l2.66911,0l2.66911,0l0,-2.55596l0,-2.55596l-2.66911,0l-2.66911,0l0,2.55596z" id="svg_2"/>
   <path stroke="null" d="m26.69105,9.22382l0,10.22382l10.67642,0l10.67642,0l0,-10.22382l0,-10.22382l-10.67642,0l-10.67642,0l0,10.22382zm10.88995,2.45372l0,2.65819l-2.77587,0l-2.77587,0l0,-2.65819l0,-2.65819l2.77587,0l2.77587,0l0,2.65819z" id="svg_3"/>
   <path stroke="null" d="m16.01463,10.45068l0,3.88505l-5.33821,0l-5.33821,0l0,-2.55596l0,-2.55596l-2.66911,0l-2.66911,0l0,5.11191l0,5.11191l10.67642,0l10.67642,0l0,-6.44101l0,-6.44101l-2.66911,0l-2.66911,0l0,3.88505z" id="svg_4"/>
   <path stroke="null" d="m0,34.78339l0,10.22382l10.67642,0l10.67642,0l0,-10.22382l0,-10.22382l-10.67642,0l-10.67642,0l0,10.22382zm16.01463,-2.55596l0,2.55596l-2.66911,0l-2.66911,0l0,-2.55596l0,-2.55596l2.66911,0l2.66911,0l0,2.55596z" id="svg_5"/>
   <path stroke="null" d="m26.69105,34.78339l0,10.22382l4.05704,0l4.05704,0l0,2.55596l0,2.55596l2.56234,0l2.56234,0l0,-2.55596l0,-2.55596l4.05704,0l4.05704,0l0,-10.22382l0,-10.22382l-10.67642,0l-10.67642,0l0,10.22382zm16.01463,0l0,5.11191l-1.38793,0l-1.38793,0l0,-1.3291l0,-1.3291l-2.56234,0l-2.56234,0l0,1.3291l0,1.3291l-1.38793,0l-1.38793,0l0,-5.11191l0,-5.11191l5.33821,0l5.33821,0l0,5.11191z" id="svg_6"/>
  </g>
 </g>
</svg>