<svg xmlns="http://www.w3.org/2000/svg" viewBox="0 0 25.4 9.187">
 <g>
  <g id="svg_2" fill="current">
   <path id="svg_3" d="m9.896,2.051l0.994,0l0,1.976l1.834,-1.976l1.2,0l-1.84,1.908l1.924,2.602l-1.195,0l-1.4,-1.924l-0.523,0.542l0,1.382l-0.994,0l0,-4.51zm3.584,2.808l0,-0.013c0,-0.994 0.8,-1.8 1.88,-1.8c1.072,0 1.866,0.794 1.866,1.8l0,0.013c0,0.994 -0.8,1.8 -1.88,1.8c-1.072,0 -1.866,-0.794 -1.866,-1.8zm2.776,0l0,-0.013c0,-0.5 -0.368,-0.956 -0.9,-0.956c-0.562,0 -0.898,0.433 -0.898,0.943l0,0.013c0,0.5 0.368,0.956 0.9,0.956c0.562,0 0.897,-0.433 0.897,-0.943l0.001,0z"/>
   <path id="svg_4" d="m17.496,5.589l0,-1.63l-0.413,0l0,-0.84l0.413,0l0,-0.885l0.98,0l0,0.885l0.814,0l0,0.84l-0.814,0l0,1.48c0,0.226 0.097,0.336 0.316,0.336a0.998,0.998 0 0 0 0.484,-0.123l0,0.788c-0.207,0.123 -0.445,0.2 -0.775,0.2c-0.6,0 -1.007,-0.24 -1.007,-1.04l0.002,-0.011zm2.077,-3.732l0.98,0l0,4.713l-0.98,0l0,-4.713zm1.336,0l1.033,0l0,0.872l-1.032,0l-0.001,-0.872zm0.026,1.253l0.98,0l0,3.46l-0.98,0l0,-3.46zm1.355,0l0.98,0l0,0.49c0.226,-0.29 0.517,-0.555 1.014,-0.555c0.743,0 1.175,0.49 1.175,1.285l0,2.24l-0.98,0l0,-1.931c0,-0.465 -0.22,-0.704 -0.594,-0.704s-0.613,0.24 -0.613,0.704l0,1.93l-0.98,0l-0.002,-3.459z"/>
  </g>
  <path id="svg_5" fill="current" d="m4.27,0.002l-4.27,4.487l0,4.013l4.262,-4.27l4.24,-4.232l-4.232,0.002z"/>
  <path id="svg_6" fill="current" d="m0,8.503l4.262,-4.27l4.24,4.27l-8.502,0z"/>
  <path id="svg_7" fill="current" d="m0,0.002l4.27,0l-4.27,4.487l0,-4.487z"/>
 </g>
</svg>