<svg viewBox="0 0 235 50" xmlns="http://www.w3.org/2000/svg" version="1.0">
 <g>
  <g stroke="null" id="svg_1">
   <g stroke="null" id="svg_2">
    <path stroke="null" fill="current" d="m43.81741,6.79025l0,0l0,29.06037l17.00589,0l0,-5.65063l-10.84777,0l0,-17.1893c0,-3.46635 -2.74747,-6.22044 -6.15812,-6.22044z" id="svg_3"/>
    <rect stroke="null" fill="current" x="64.04447" y="16.04968" width="5.92127" height="19.80094" id="svg_4"/>
    <path stroke="null" fill="current" d="m112.69364,27.30345c0,1.89937 -0.90003,3.70377 -3.31591,3.70377c-2.27377,0 -3.07906,-1.75692 -3.07906,-3.65629l0,-11.30125l-5.92127,0l0,13.01069c0,4.2261 2.55799,7.31258 6.91605,7.31258c2.08429,0 4.26332,-0.85472 5.63705,-2.89654l0,2.37421l5.58968,0l0,-19.80094l-5.92127,0l0.09474,11.25377l0,0z" id="svg_5"/>
    <rect stroke="null" fill="current" x="123.73089" y="16.04968" width="5.92127" height="19.80094" id="svg_6"/>
    <path stroke="null" fill="current" d="m195.023,23.55219l-1.61059,-0.33239c-1.70533,-0.37987 -2.46325,-0.71226 -2.46325,-1.75692c0,-0.94969 0.99477,-1.42453 2.17903,-1.42453c1.13688,0 2.27377,0.33239 2.27377,2.04182l6.01601,0c-0.33159,-4.46352 -3.69487,-6.50534 -8.24241,-6.50534c-4.50017,0 -8.24241,2.27924 -8.24241,6.31541c0,4.03616 3.07906,5.41321 6.53708,6.12547l1.89481,0.37987c1.42111,0.33239 2.27377,0.71226 2.27377,1.8044c0,1.13962 -0.9474,1.66195 -2.46325,1.66195c-1.56322,0 -2.74747,-0.66478 -2.74747,-2.46918l-6.20549,0c0.28422,4.89088 3.97909,6.98019 9.09507,6.98019c4.78439,0 8.43189,-2.23176 8.43189,-6.6478c0.09474,-3.98868 -2.84221,-5.31824 -6.72656,-6.17295z" id="svg_7"/>
    <path stroke="null" fill="current" d="m225.33991,25.6415c0,-5.65063 -3.93172,-10.11415 -10.3267,-10.11415c-6.11075,0 -10.56355,4.65346 -10.56355,10.39905c0,5.7456 4.21595,10.39905 10.46881,10.39905c5.25809,0 8.81085,-2.7066 9.99511,-6.9327l-5.68442,0c-0.85266,1.47201 -2.2264,2.18428 -4.21595,2.18428c-2.65273,0 -4.40543,-1.66195 -4.9265,-4.17861l15.2532,0l0,-1.75692l0,0zm-14.96897,-2.08931c0.71055,-1.94685 2.32114,-3.22893 4.64228,-3.22893s3.97909,1.23459 4.59491,3.22893l-9.23718,0z" id="svg_8"/>
    <path stroke="null" fill="current" d="m174.98542,17.14182c-1.61059,-0.94969 -3.45802,-1.5195 -5.44757,-1.5195c-5.77916,0 -10.46881,4.70094 -10.46881,10.49402c0,5.79308 4.68965,10.49402 10.46881,10.49402c1.98955,0 3.88435,-0.56981 5.44757,-1.5195l0,0.75975l5.63705,0l0,-19.80094l-5.63705,0l0,1.09214zm-5.49494,14.19779c-2.88958,0 -5.21072,-2.32673 -5.21072,-5.22327s2.32114,-5.22327 5.21072,-5.22327c2.88958,0 5.21072,2.32673 5.21072,5.22327s-2.27377,5.22327 -5.21072,5.22327z" id="svg_9"/>
    <path stroke="null" fill="current" d="m146.56332,15.62232c-2.27377,-0.14245 -4.35806,0.42736 -6.15812,1.5195l0,-7.50251c0,-3.13396 -2.51062,-5.65063 -5.63705,-5.65063l0,0l0,31.81445l5.63705,0l0,-0.75975c1.61059,0.94969 3.45802,1.5195 5.44757,1.5195c6.01601,0 10.84777,-5.1283 10.46881,-11.25377c-0.33159,-5.1283 -4.54754,-9.3544 -9.75826,-9.68679zm-0.71055,15.71729c-2.88958,0 -5.21072,-2.32673 -5.21072,-5.22327s2.32114,-5.22327 5.21072,-5.22327c2.88958,0 5.21072,2.32673 5.21072,5.22327s-2.27377,5.22327 -5.21072,5.22327z" id="svg_10"/>
    <path stroke="null" fill="current" d="m67.0288,6.79025c-1.89481,0 -3.45802,1.56698 -3.45802,3.46635c0,1.89937 1.56322,3.46635 3.45802,3.46635c1.89481,0 3.45802,-1.56698 3.45802,-3.46635c0,-1.89937 -1.56322,-3.46635 -3.45802,-3.46635z" id="svg_11"/>
    <path stroke="null" fill="current" d="m126.66784,6.79025c-1.89481,0 -3.45802,1.56698 -3.45802,3.46635c0,1.89937 1.56322,3.46635 3.45802,3.46635c1.89481,0 3.45802,-1.56698 3.45802,-3.46635c0.04737,-1.89937 -1.51585,-3.46635 -3.45802,-3.46635z" id="svg_12"/>
    <path stroke="null" fill="current" d="m89.90859,16.04968l0,1.18711c-1.80007,-1.09214 -3.88435,-1.70943 -6.15812,-1.56698c-5.21072,0.28491 -9.47403,4.511 -9.80563,9.73427c-0.42633,6.12547 4.40543,11.25377 10.46881,11.25377c1.89481,0 3.6475,-0.52233 5.21072,-1.37704l0,8.40471c0,3.27641 2.65273,5.93553 5.92127,5.93553l0,0l0,-6.98019l0,-18.9937l0,-7.59748c-0.09474,0 -5.63705,0 -5.63705,0zm-5.35283,15.28993c-2.88958,0 -5.21072,-2.32673 -5.21072,-5.22327s2.32114,-5.22327 5.21072,-5.22327c2.88958,0 5.21072,2.32673 5.21072,5.22327s-2.32114,5.22327 -5.21072,5.22327z" id="svg_13"/>
    <g stroke="null" id="svg_14">
     <ellipse stroke="null" fill="current" cx="15.01634" cy="6.0305" rx="15.01634" ry="6.0305" id="svg_15"/>
     <path stroke="null" fill="current" d="m15.39531,32.62169c-4.78439,1.13962 -9.75826,2.32673 -12.93206,4.46352c-1.61059,-0.99717 -2.46325,-2.13679 -2.46325,-3.18145c0,-4.79591 7.95819,-6.60031 15.67953,-8.35723c5.54231,-1.23459 11.22673,-2.56415 14.40053,-5.1283l0,4.2261c0,4.41604 -7.48449,6.22044 -14.68475,7.97736z" id="svg_16"/>
     <path stroke="null" fill="current" d="m15.11109,22.98238c-5.8739,1.32956 -11.84254,2.7066 -15.11109,5.50817l0,-0.94969c0,-8.35723 9.14244,-10.49402 17.9533,-12.53584c6.39497,-1.5195 9.5214,-2.27924 12.12676,-4.41604l0,4.65346c0,4.36855 -7.6266,6.07799 -14.96897,7.73993z" id="svg_17"/>
     <path stroke="null" fill="current" d="m30.08006,29.82012c-3.12643,2.65912 -8.66874,3.98868 -14.11631,5.27075c-3.88435,0.94969 -7.86345,1.89937 -10.70566,3.27641c2.55799,0.9022 5.92127,1.5195 9.75826,1.5195c8.76348,0 15.01634,-3.18145 15.01634,-6.0305l0,-4.03616l0.04737,0z" id="svg_18"/>
    </g>
   </g>
  </g>
 </g>
</svg>