<svg width="309" height="49.99999999999999" xmlns="http://www.w3.org/2000/svg" version="1.0">
 <g>
  <g stroke="null" id="svg_1" fill="current" transform="translate(0 160) scale(0.1 -0.1)">
   <path stroke="null" id="svg_2" d="m348.85395,1602.29339c-8.70099,-1.61826 -35.84809,-3.23651 -60.90695,-3.56016c-38.98045,-0.6473 -47.3334,-1.61826 -61.25499,-8.09128l-15.66179,-7.12033l-27.84318,6.79668c-36.19613,9.06223 -86.66189,10.03319 -111.37271,1.94191c-35.84809,-11.65144 -60.21087,-40.4564 -67.86775,-81.23645c-4.87256,-26.5394 -2.43628,-51.78419 9.39707,-102.27378c29.58338,-123.95841 71.00011,-188.68865 112.41683,-176.3899c4.17648,0.97095 11.83335,5.50207 17.40199,10.03319l10.09315,8.09128l2.43628,-7.12033c1.39216,-3.88381 9.04903,-9.38588 18.44611,-13.2697c18.79415,-7.76763 57.42656,-6.79668 71.69619,1.94191c4.87256,2.91286 9.74511,5.17842 10.78923,5.17842c1.04412,0 1.7402,-10.68049 2.08824,-23.30289c0.34804,-12.94605 1.7402,-32.36512 3.13236,-43.04561c2.78432,-17.47716 2.78432,-16.50621 1.39216,8.09128c-0.69608,15.21161 -1.39216,38.19084 -1.39216,51.13689l0,23.95019l-10.44119,-8.41493c-13.57355,-10.68049 -35.84809,-16.18256 -54.99028,-13.59335c-18.44611,2.26556 -35.50005,10.35684 -35.50005,16.50621c0,6.47302 12.87747,13.59335 29.23534,16.50621c14.26963,2.26556 36.89221,18.44812 36.89221,25.8921c0,2.91286 -3.82844,4.53112 -10.78923,4.53112c-5.91668,0 -13.92159,1.61826 -18.09807,3.56016c-6.61275,3.56016 -10.09315,0.97095 -38.98045,-26.86305c-17.05395,-17.15351 -34.10789,-32.04147 -37.58829,-33.01242c-9.39707,-2.91286 -27.49514,5.50207 -38.63241,17.47716c-21.23042,23.62654 -44.89713,81.23645 -62.99519,153.73432c-12.87747,50.81324 -13.57355,97.74266 -2.43628,124.60571c18.79415,44.66387 65.43147,64.40659 130.5149,55.66801c16.00983,-2.26556 36.54417,-6.14937 45.94124,-9.06223c16.00983,-5.17842 17.05395,-5.17842 32.71573,2.26556c14.26963,6.79668 21.23042,7.76763 61.25499,8.09128c25.05886,0.32365 53.59812,2.26556 64.03931,4.20747c54.99028,10.35684 108.93644,-1.94191 145.48061,-33.01242c24.01474,-20.71368 26.79906,-27.1867 24.36278,-65.37754c-3.13236,-50.16594 -25.4069,-112.63062 -61.25499,-170.24053c-10.78923,-17.47716 -15.66179,-28.48131 -13.57355,-30.42321c3.4804,-3.56016 44.20105,-4.20747 60.21087,-0.97095c28.53926,5.82572 22.62258,-14.5643 -8.70099,-31.07052c-17.75003,-9.06223 -21.57846,-10.03319 -51.16184,-10.03319c-22.97062,0 -32.3677,-1.2946 -32.3677,-3.88381c0,-8.09128 -10.78923,-80.9128 -14.26963,-97.41901c-6.96079,-32.68877 -36.89221,-52.43149 -79.35306,-52.43149c-19.49023,0 -33.41181,7.76763 -44.89713,24.92114c-5.91668,9.06223 -7.65687,10.03319 -5.91668,4.20747c3.82844,-12.6224 11.48531,-22.33193 23.6667,-29.12861c22.97062,-13.2697 67.86775,-4.53112 91.53445,17.47716c18.09807,16.50621 25.05886,36.57259 30.6275,88.68043l3.82844,37.54354l23.31866,0.6473c32.3677,0.97095 57.7746,8.73858 75.17658,22.65558c12.52943,10.03319 14.96571,13.59335 13.92159,22.00828l-1.04412,10.03319l-37.24025,-0.97095c-21.23042,-0.6473 -37.58829,0 -37.58829,1.94191c0,1.61826 8.70099,18.44812 19.49023,37.21989c34.80397,61.81738 54.2942,122.98746 54.2942,169.26958c0,31.39417 -4.17648,40.13275 -28.53926,60.52277c-38.63241,32.36512 -96.75505,45.31117 -153.13748,33.98338zm-139.91197,-313.29436c5.2206,0 5.56864,-8.41493 0.34804,-11.65144c-5.2206,-2.91286 -38.98045,-11.00414 -40.72065,-9.70954c-0.69608,0.6473 3.82844,6.47302 10.09315,13.2697c8.35295,8.73858 13.22551,11.32779 18.44611,10.03319c4.17648,-0.97095 9.39707,-1.94191 11.83335,-1.94191z"/>
   <path stroke="null" id="svg_3" d="m348.85395,1587.40544c-8.35295,-2.26556 -7.65687,-2.91286 8.70099,-10.35684c25.05886,-11.32779 60.55891,-45.63482 75.52462,-73.14517l12.18139,-22.65558l-0.69608,-71.20326c-0.34804,-59.87547 -1.39216,-72.49787 -6.61275,-81.5601c-5.56864,-10.03319 -5.2206,-16.82986 1.39216,-16.82986c4.87256,0 47.3334,82.85471 57.42656,111.65966c12.18139,34.63068 20.1863,79.94185 17.40199,96.77171c-4.17648,23.95019 -22.62258,42.39831 -57.42656,57.93356c-20.53434,9.38588 -26.10298,10.35684 -60.90695,11.00414c-20.88238,0.32365 -42.11281,-0.32365 -46.98536,-1.61826z"/>
   <path stroke="null" id="svg_4" d="m248.27047,1581.90337c-42.80889,-11.32779 -68.91187,-42.72196 -80.39718,-98.06631c-2.43628,-11.32779 -3.82844,-20.71368 -3.13236,-21.68463c0.69608,-0.6473 10.09315,1.61826 20.53434,4.85477c10.44119,3.56016 26.10298,6.14937 34.10789,6.47302c12.87747,0 17.40199,-1.94191 26.79906,-10.68049c9.39707,-8.73858 12.18139,-14.5643 15.66179,-34.63068c5.91668,-32.68877 2.78432,-58.58087 -12.18139,-93.5352c-6.61275,-16.18256 -12.18139,-30.74686 -12.18139,-32.68877c0,-1.61826 3.82844,-3.23651 8.35295,-3.23651c4.52452,0 11.83335,-2.91286 16.35787,-6.14937c8.35295,-6.14937 8.35295,-7.44398 10.09315,-75.41073c1.7402,-65.70119 2.43628,-69.58501 10.44119,-83.50201c12.52943,-21.03733 28.8873,-27.834 54.64224,-22.97924c25.05886,4.53112 40.72065,13.917 48.02948,28.48131c6.61275,12.6224 12.52943,44.98752 19.14219,104.53934c4.52452,41.751 8.00491,51.13689 19.83826,53.7261c9.74511,2.58921 9.74511,2.58921 0,15.21161c-13.57355,16.82986 -43.15693,70.55596 -50.8138,91.91694c-8.70099,23.62654 -9.39707,39.8091 -2.43628,52.43149c6.26472,11.32779 19.49023,16.82986 44.89713,19.41907l20.53434,1.94191l-11.83335,20.06637c-16.00983,28.15765 -35.15201,48.22403 -59.86283,62.78833c-35.15201,21.36098 -81.78934,29.45226 -116.59331,20.71368z"/>
   <path stroke="null" id="svg_5" d="m78.07904,1578.66685c-22.27454,-6.47302 -37.24025,-18.77177 -48.37752,-39.48545c-9.04903,-17.47716 -9.74511,-21.36098 -9.39707,-57.60991c0,-32.04147 2.08824,-45.95847 11.13727,-79.29454c24.36278,-92.56424 53.25008,-147.9086 79.35306,-154.05797c10.44119,-2.58921 16.00983,1.61826 45.94124,33.01242c24.71082,26.5394 24.71082,26.5394 17.40199,32.36512c-3.82844,3.56016 -10.44119,11.97509 -14.26963,19.09542c-6.61275,11.97509 -7.30883,17.47716 -6.26472,74.43978c0.34804,37.21989 2.78432,70.23231 5.56864,83.50201c5.56864,25.56844 18.79415,53.7261 31.32358,67.6431c4.87256,5.17842 8.00491,10.68049 6.96079,12.29875c-3.4804,5.17842 -50.46576,12.94605 -77.26482,12.6224c-14.96571,0 -33.75985,-1.94191 -42.11281,-4.53112z"/>
   <path stroke="null" id="svg_6" d="m395.49128,1463.77068c-19.14219,-7.12033 -22.97062,-26.21575 -12.18139,-55.66801c7.30883,-19.41907 37.24025,-76.05803 42.11281,-78.64724c6.26472,-3.56016 8.00491,12.6224 8.35295,73.79247l0.34804,63.75929l-15.66179,-0.32365c-8.70099,0 -19.14219,-1.2946 -22.97062,-2.91286zm25.4069,-8.41493c3.4804,-8.09128 -10.44119,-18.77177 -21.57846,-16.18256c-11.83335,2.91286 -15.31375,11.32779 -6.96079,16.82986c9.04903,6.14937 25.75494,5.82572 28.53926,-0.6473z"/>
   <path stroke="null" id="svg_7" d="m195.71647,1460.85782c-4.87256,-1.61826 -13.57355,-4.85477 -19.49023,-7.76763l-10.78923,-5.17842l-1.7402,-46.28212c-1.04412,-27.1867 -0.34804,-50.16594 1.7402,-55.99166c5.56864,-15.85891 19.83826,-31.07052 35.15201,-37.54354c22.27454,-9.38588 25.05886,-8.41493 33.06377,12.6224c3.82844,10.03319 10.09315,26.5394 13.92159,36.24893c12.52943,31.71782 7.30883,88.35678 -9.04903,100.33187c-9.04903,6.79668 -26.45102,8.09128 -42.80889,3.56016zm42.11281,-11.97509c3.82844,-4.53112 3.4804,-6.14937 -3.4804,-11.32779c-10.09315,-7.44398 -11.48531,-7.76763 -21.57846,-0.32365c-10.78923,8.41493 -6.96079,16.82986 8.35295,16.82986c6.96079,0 13.92159,-2.26556 16.70591,-5.17842z"/>
   <path stroke="null" id="svg_8" d="m2243.9303,1441.11509c-45.59321,-8.73858 -67.51971,-30.09956 -67.86775,-65.70119c0,-20.06637 6.61275,-33.98338 21.57846,-46.28212c13.92159,-11.32779 44.54909,-19.41907 115.89723,-30.42321c72.39226,-11.00414 88.40209,-18.12447 95.71093,-41.751c7.30883,-24.59749 -4.17648,-46.60577 -30.6275,-57.93356c-18.09807,-8.09128 -23.6667,-8.73858 -63.34323,-8.73858c-24.01474,0 -49.76968,1.94191 -57.7746,4.20747c-29.93142,8.09128 -51.85792,29.12861 -55.68636,53.0788l-2.43628,12.29875l-17.40199,0l-17.40199,0l2.43628,-13.59335c8.35295,-48.54768 47.68144,-72.17422 127.38254,-76.05803c76.91678,-3.88381 129.47078,13.2697 145.13257,46.92942c6.26472,14.24065 6.61275,45.95847 0,57.60991c-12.52943,22.65558 -34.80397,31.39417 -116.94135,45.31117c-35.50005,6.14937 -70.65207,12.94605 -77.9609,14.88796c-48.37752,13.59335 -45.94124,74.11612 3.4804,86.41487c41.76477,10.35684 98.1472,6.79668 125.64234,-8.41493c14.96571,-8.09128 28.19122,-27.1867 28.53926,-40.4564c0,-4.85477 3.13236,-5.82572 17.40199,-5.82572l17.75003,0l-2.43628,12.29875c-9.04903,47.25308 -46.63732,65.70119 -131.90706,65.05389c-24.71082,-0.32365 -51.50988,-1.61826 -59.16675,-2.91286z"/>
   <path stroke="null" id="svg_9" d="m2572.82785,1439.17319c-44.89713,-11.00414 -83.87758,-38.83814 -99.53936,-70.87961c-11.13727,-22.33193 -15.66179,-54.3734 -11.48531,-81.5601c9.04903,-59.22817 52.90204,-98.71362 125.2943,-112.95427c35.15201,-7.12033 97.79917,-4.85477 127.38254,4.85477l21.23042,6.79668l26.45102,-16.82986l26.45102,-16.82986l8.70099,7.76763c4.87256,4.20747 8.70099,8.73858 8.70099,10.03319c0,0.97095 -10.09315,8.41493 -22.62258,15.85891c-12.52943,7.44398 -22.62258,14.5643 -22.62258,15.85891c0,1.2946 6.96079,8.41493 15.31375,16.18256c8.70099,7.76763 19.83826,22.97924 25.4069,33.98338c8.70099,17.80082 9.74511,22.97924 9.39707,55.34436c0,29.12861 -1.39216,38.83814 -8.00491,54.04975c-15.66179,37.21989 -56.73048,67.96675 -105.108,78.64724c-28.8873,6.14937 -99.19132,6.14937 -124.94626,-0.32365zm93.97073,-14.5643c48.72556,-7.12033 90.14229,-34.95433 104.75996,-70.55596c5.91668,-13.59335 7.65687,-25.24479 8.00491,-47.25308c0,-25.24479 -1.39216,-31.71782 -9.39707,-48.54768c-24.01474,-47.90038 -75.87266,-72.49787 -145.13257,-68.61405c-64.03931,3.56016 -112.76487,34.95433 -127.38254,82.2074c-7.65687,24.27384 -5.2206,64.73024 4.52452,85.76757c24.71082,50.81324 90.83837,77.99994 164.62279,66.9958z"/>
   <path stroke="null" id="svg_10" d="m644.68773,1308.74175l0,-133.02064l15.66179,0l15.66179,0l0.69608,55.99166l1.04412,55.66801l83.52954,1.61826c81.09326,1.61826 83.87758,1.94191 100.93152,10.03319c34.10789,16.18256 49.0736,46.60577 40.72065,83.82566c-5.2206,22.00828 -18.44611,38.19084 -41.06869,48.54768c-16.70591,8.09128 -18.44611,8.09128 -116.94135,9.06223l-100.23544,0.97095l0,-132.69699zm196.99049,102.92108c20.53434,-9.06223 30.6275,-28.48131 28.53926,-53.40245c-1.7402,-20.06637 -9.74511,-32.04147 -27.49514,-41.751c-10.78923,-5.82572 -18.09807,-6.47302 -88.40209,-6.47302l-76.56874,0l-1.04412,54.3734l-0.69608,54.04975l75.52462,0c68.91187,0 76.56874,-0.6473 90.14229,-6.79668z"/>
   <path stroke="null" id="svg_11" d="m2848.82336,1438.84954l-11.48531,-1.2946l0,-131.07874l0,-130.75508l123.55411,0l123.55411,0l0,9.70954l0,9.70954l-106.8482,0.6473l-107.19624,0.97095l-0.34804,118.13269c-0.69608,137.22811 -0.34804,126.22397 -5.56864,125.57667c-2.43628,0 -9.74511,-0.97095 -15.66179,-1.61826z"/>
   <path stroke="null" id="svg_12" d="m1413.85554,1378.32676l0,-27.51035l-18.09807,-0.97095c-17.05395,-0.97095 -18.44611,-1.61826 -19.49023,-9.70954c-1.04412,-9.06223 -0.69608,-9.06223 18.09807,-9.06223l19.49023,0l0,-66.3485c0,-42.72196 1.39216,-68.93771 3.82844,-74.11612c5.91668,-11.65144 27.84318,-18.77177 53.59812,-17.47716c19.83826,0.97095 20.88238,1.2946 21.9265,10.03319c1.04412,8.73858 1.04412,8.73858 -19.83826,8.73858c-31.32358,0 -31.67162,0.97095 -31.67162,76.70533l0,62.46468l26.10298,0c25.4069,0 26.10298,0.32365 26.10298,8.09128c0,7.44398 -1.04412,7.76763 -25.05886,8.73858l-25.4069,0.97095l-1.04412,28.48131l-1.04412,28.15765l-13.57355,0l-13.92159,0l0,-27.1867z"/>
   <path stroke="null" id="svg_13" d="m970.10488,1349.19815c-29.58338,-8.73858 -49.76968,-23.62654 -62.99519,-47.25308c-9.74511,-17.15351 -9.39707,-65.05389 1.04412,-82.53106c10.09315,-17.47716 27.1471,-32.04147 48.02948,-41.1037c15.31375,-6.47302 22.97062,-7.44398 60.90695,-7.44398c37.93633,0 45.59321,0.97095 60.55891,7.44398c41.41673,17.47716 58.81871,42.39831 58.81871,83.17836c0,60.19912 -42.46085,92.56424 -120.76979,91.91694c-17.40199,0 -37.93633,-1.94191 -45.59321,-4.20747zm97.79917,-22.97924c26.10298,-10.68049 39.67653,-32.36512 39.67653,-62.78833c0,-23.95019 -6.61275,-39.48545 -22.27454,-54.04975c-17.05395,-16.18256 -32.3677,-20.71368 -69.95599,-20.71368c-49.0736,0 -76.2207,18.12447 -85.26973,56.31531c-4.87256,20.06637 0,43.69291 12.18139,60.84643c20.88238,29.45226 80.74522,39.1618 125.64234,20.39003z"/>
   <path stroke="null" id="svg_14" d="m1207.46798,1350.16911c-31.67162,-6.79668 -47.68144,-21.68463 -47.68144,-44.01656c0,-35.60163 14.61767,-42.72196 113.11291,-54.3734c44.54909,-5.17842 56.38244,-10.03319 62.29911,-24.92114c4.52452,-11.97509 -4.17648,-25.56844 -20.53434,-33.33607c-11.13727,-5.17842 -21.23042,-6.47302 -50.46576,-6.47302c-51.50988,0 -72.7403,8.73858 -79.7011,32.68877c-2.43628,8.73858 -3.82844,9.38588 -16.35787,8.41493c-7.30883,-0.6473 -14.26963,-1.61826 -14.61767,-2.26556c-3.82844,-3.23651 4.87256,-22.97924 13.57355,-32.36512c16.35787,-17.15351 38.28437,-22.65558 93.62269,-22.65558c36.19613,0 51.16184,1.2946 64.73539,5.82572c52.20596,16.82986 56.38244,68.93771 6.96079,86.09122c-6.96079,2.58921 -109.28448,16.50621 -121.11783,16.50621c-5.56864,0 -23.6667,17.47716 -23.6667,22.65558c0,11.65144 7.65687,21.68463 20.1863,27.51035c18.79415,8.09128 60.90695,10.03319 84.57366,3.88381c21.23042,-5.82572 29.93142,-12.94605 34.10789,-26.86305c2.08824,-8.09128 4.52452,-9.38588 17.05395,-10.35684c12.87747,-0.97095 14.61767,-0.32365 14.61767,5.82572c0,11.00414 -10.44119,28.48131 -20.53434,35.27798c-16.35787,11.00414 -44.54909,16.50621 -81.78934,16.18256c-19.49023,-0.32365 -41.06869,-1.61826 -48.37752,-3.23651z"/>
   <path stroke="null" id="svg_15" d="m1583.35089,1350.16911c-49.0736,-10.68049 -74.4805,-43.69291 -71.34815,-91.91694c3.82844,-55.99166 44.20105,-81.88375 121.46587,-78.64724c34.80397,1.2946 59.51479,9.06223 75.17658,22.65558l8.00491,6.79668l0,-22.65558c0,-42.39831 -20.53434,-62.78833 -68.21579,-67.6431c-27.84318,-2.58921 -65.43147,2.58921 -77.9609,11.00414c-4.87256,3.23651 -11.48531,11.32779 -14.96571,17.80082c-5.91668,11.00414 -7.65687,11.97509 -20.53434,11.97509c-13.92159,0 -13.92159,0 -11.83335,-10.03319c7.30883,-33.98338 51.85792,-51.46054 121.81391,-47.25308c51.50988,2.91286 80.39718,16.50621 93.27465,43.36926c6.26472,12.94605 6.96079,23.62654 8.00491,108.0995l1.39216,93.5352l-15.66179,0l-15.31375,0l0,-13.2697l0,-12.94605l-15.66179,11.65144c-8.35295,6.47302 -22.62258,13.917 -31.67162,16.50621c-18.09807,4.85477 -65.08343,5.50207 -85.96581,0.97095zm84.92169,-19.41907c30.97554,-9.70954 48.37752,-33.01242 48.37752,-64.40659c0,-53.7261 -52.554,-82.53106 -119.72567,-66.3485c-34.10789,8.41493 -48.37752,21.36098 -54.2942,50.16594c-5.2206,25.8921 1.04412,47.25308 18.79415,63.43564c8.00491,7.12033 20.1863,14.5643 26.79906,16.50621c16.00983,4.85477 65.43147,5.17842 80.04914,0.6473z"/>
   <path stroke="null" id="svg_16" d="m1844.38069,1349.19815c-15.66179,-5.50207 -22.62258,-10.35684 -30.97554,-22.97924l-6.26472,-9.70954l0,15.53526l0,15.21161l-13.92159,0l-13.92159,0l0,-85.76757l0,-85.76757l13.92159,0l13.92159,0l0,49.51863c0,59.22817 4.52452,77.67629 22.62258,92.24059c13.57355,11.32779 43.15693,18.44812 62.29911,14.88796c12.52943,-1.94191 12.52943,-1.94191 12.52943,9.70954l0,11.65144l-23.31866,0c-13.22551,-0.32365 -29.58338,-2.26556 -36.89221,-4.53112z"/>
   <path stroke="null" id="svg_17" d="m1976.63579,1350.49276c-28.8873,-6.79668 -52.90204,-23.95019 -66.12755,-46.92942c-5.91668,-10.35684 -7.65687,-18.44812 -7.65687,-40.4564c0,-32.04147 5.56864,-45.63482 27.49514,-65.05389c48.37752,-43.36926 160.44632,-35.92528 193.85813,12.29875c5.56864,8.41493 10.09315,16.50621 10.09315,17.80082c0,1.2946 -6.96079,2.58921 -15.66179,2.58921c-13.22551,0 -16.00983,-1.2946 -20.53434,-8.73858c-13.22551,-23.62654 -37.24025,-34.30703 -77.9609,-33.98338c-24.01474,0 -31.67162,1.2946 -48.02948,8.73858c-22.27454,10.03319 -35.84809,26.5394 -38.63241,46.60577l-2.08824,13.2697l103.71584,0l103.71584,0l-2.08824,17.47716c-3.4804,31.71782 -23.31866,56.63896 -56.38244,70.55596c-13.92159,5.82572 -24.71082,7.44398 -53.94616,8.09128c-20.1863,0.32365 -42.46085,-0.6473 -49.76968,-2.26556zm90.49033,-23.30289c19.83826,-9.38588 39.32849,-31.71782 39.32849,-44.98752l0,-9.38588l-87.00993,0c-98.1472,0 -93.27465,-1.2946 -79.7011,24.92114c14.26963,27.1867 43.85301,40.4564 85.61777,38.51449c18.09807,-0.6473 29.93142,-3.23651 41.76477,-9.06223z"/>
   <path stroke="null" id="svg_18" d="m426.11877,1287.38077c-4.87256,-3.23651 -7.65687,-8.41493 -7.65687,-14.24065c0,-7.76763 1.7402,-9.70954 11.48531,-11.32779c24.01474,-4.20747 69.95599,8.41493 82.48542,22.65558c4.52452,4.85477 4.17648,5.17842 -5.2206,3.56016c-34.10789,-5.82572 -48.02948,-5.50207 -67.86775,2.26556c-2.78432,0.97095 -8.70099,-0.32365 -13.22551,-2.91286z"/>
   <path stroke="null" id="svg_19" d="m225.29985,1274.75838c-11.48531,-11.65144 -17.40199,-14.88796 -33.75985,-18.44812c-11.13727,-1.94191 -20.1863,-5.17842 -20.1863,-6.47302c0,-4.20747 21.23042,-9.38588 37.93633,-9.38588c19.14219,0 41.06869,10.68049 48.72556,23.30289c4.17648,6.79668 4.52452,10.03319 1.04412,16.82986c-6.26472,12.6224 -17.40199,10.68049 -33.75985,-5.82572z"/>
   <path stroke="null" id="svg_20" d="m265.67246,1144.65059c0,-3.56016 1.04412,-4.53112 2.08824,-1.94191c1.04412,2.26556 0.69608,5.17842 -0.34804,6.14937c-1.04412,1.2946 -2.08824,-0.6473 -1.7402,-4.20747z"/>
  </g>
 </g>
</svg>