<svg viewBox="0 0 61 50" xmlns="http://www.w3.org/2000/svg">
 <g>
  <path d="m8.2712,5.32903c2.46085,-1.76166 5.49824,-2.20921 8.38974,-2.17874c2.75264,0.03809 5.6248,0.55992 7.92393,2.34253c1.65756,1.26268 2.73506,3.21098 3.45222,5.22783c1.16011,3.31001 1.50288,6.88474 1.54155,10.40234c0.00527,3.54236 -0.14062,7.16089 -1.22515,10.53756c-0.72419,2.29491 -2.10403,4.33463 -3.92505,5.75157l3.95494,6.88093l-4.93576,2.46822l-4.20629,-7.52275c-1.90364,0.3371 -3.86705,0.31234 -5.7619,0.08189c-2.29035,-0.2971 -4.6264,-1.05509 -6.39469,-2.72343c-1.35874,-1.27601 -2.21125,-3.05862 -2.8124,-4.87169c-0.95622,-3.04719 -1.23042,-6.33054 -1.25679,-9.54913c-0.02285,-3.47951 0.18281,-7.01234 1.15133,-10.35092c0.7488,-2.51012 1.98977,-5.01643 4.08325,-6.48861l0.02109,-0.00762l-0.00002,0.00002zm27.61942,1.28853l5.25751,-1.002l0.20392,7.00196l6.60562,0.0019l-0.11953,4.80694c-2.2007,0.00571 -4.39965,-0.0019 -6.59859,0.00381l0.00879,12.13733c0.04219,1.10461 0.01758,2.27587 0.46932,3.29858c0.3287,0.78846 1.23042,0.99034 1.93352,1.017l4.06919,-0.11808l0.24081,4.41842c-2.6999,0.49136 -5.53164,1.07985 -8.2122,0.15998c-1.12848,-0.3809 -2.18312,-1.17507 -2.64014,-2.38443c-0.82087,-2.05685 -0.88766,-4.34796 -0.92282,-6.55907l-0.00176,-11.97164c-1.20054,-0.00381 -2.40109,0.0019 -3.60339,-0.00381l0,-4.80504l3.60339,-0.00381l3.00951,-7.40276l-3.30315,0.0019l0,1.40282z" fill="none" id="svg_2" stroke-width="6" stroke="current"/>
 </g>
</svg>