<svg width="120" height="50" xmlns="http://www.w3.org/2000/svg">
 <g>
  <g transform="matrix(0.100348 0 0 0.0994322 10.4802 19.4409)" id="svg_1">
   <circle r="50.167" cy="54.74691" cx="175.87934" fill="current" id="svg_2"/>
   <g stroke="current" stroke-width="24" fill="none" id="svg_3">
    <path d="m175.88034,-47.25309c67.356,0 129.928,9.665 177.107,25.907c56.844,19.57 91.794,49.233 91.794,76.093c0,27.99 -37.04,59.503 -98.083,79.728c-46.15,15.29 -106.88,23.272 -170.818,23.272c-65.554,0 -127.63,-7.492 -174.3,-23.44c-59.046,-20.182 -94.61,-52.103 -94.61,-79.56c0,-26.642 33.37,-56.076 89.415,-75.616c47.355,-16.51 111.472,-26.384 179.486,-26.384l0.009,0z" id="svg_4"/>
    <path d="m87.08634,4.04091c33.65,-58.348 73.28,-107.724 110.92,-140.48c45.35,-39.466 88.507,-54.922 111.774,-41.505c24.248,13.983 33.042,61.814 20.067,124.796c-9.8,47.618 -33.234,104.212 -65.176,159.6c-32.75,56.788 -70.25,106.82 -107.377,139.272c-46.98,41.068 -92.4,55.93 -116.185,42.213c-23.08,-13.3 -31.906,-56.92 -20.834,-115.233c9.355,-49.27 32.832,-109.745 66.8,-168.664l0.011,0.001z" id="svg_5"/>
    <path d="m87.17034,106.60091c-33.745,-58.282 -56.72,-117.287 -66.31,-166.255c-11.544,-59 -3.382,-104.11 19.864,-117.566c24.224,-14.024 70.055,2.244 118.14,44.94c36.356,32.28 73.688,80.837 105.723,136.173c32.844,56.733 57.46,114.21 67.036,162.582c12.117,61.213 2.31,107.984 -21.453,121.74c-23.057,13.348 -65.25,-0.784 -110.24,-39.5c-38.013,-32.71 -78.682,-83.253 -112.76,-142.115l0,0.001z" id="svg_6"/>
   </g>
  </g>
  <path stroke="null" d="m69.99228,33.92618l-4.71428,-7.69685c2.38259,-0.22722 4.52947,-2.09284 4.52947,-5.50117c0,-3.46813 -2.27746,-5.68773 -5.47233,-5.68773l-7.01609,0l0,18.8714l2.17344,0l0,-7.49833l3.48259,0l4.4509,7.49833l2.56629,0.01435zm-5.9172,-9.56366l-4.58148,0l0,-7.2149l4.58148,0c2.06941,0 3.48259,1.47097 3.48259,3.5937s-1.41428,3.6236 -3.48259,3.6236l0,-0.00239zm14.00783,9.90211c2.06941,0 3.77032,-0.73548 5.02746,-2.09284l-0.94286,-1.38725c-0.99597,1.10382 -2.46116,1.72569 -3.9009,1.72569c-2.72233,0 -4.39889,-2.15024 -4.55603,-4.72383l10.2364,0l0,-0.53816c0,-4.10196 -2.25201,-7.32852 -6.07544,-7.32852c-3.61317,0 -6.23037,3.19785 -6.23037,7.1587c0,4.27297 2.69688,7.17544 6.44064,7.17544l0.00111,0.01076zm3.92857,-8.03649l-8.29979,0c0.10513,-2.09284 1.43863,-4.5564 4.13661,-4.5564c2.88058,0 4.13661,2.51858 4.16317,4.5564zm14.97724,7.69685l0,-9.39385c0,-3.31027 -2.22434,-4.61261 -4.89577,-4.61261c-2.06941,0 -3.69175,0.73548 -5.05291,2.26385l0.9163,1.47097c1.12545,-1.30115 2.35714,-1.89551 3.87545,-1.89551c1.83259,0 3.19486,1.04642 3.19486,2.88572l0,2.46118c-1.02143,-1.27364 -2.46116,-1.86801 -4.18973,-1.86801c-2.14688,0 -4.42655,1.44346 -4.42655,4.499c0,2.97063 2.27746,4.5277 4.42655,4.5277c1.70201,0 3.14285,-0.65057 4.18973,-1.89551l0,1.55468l1.96207,0.00239zm-5.44466,-1.18873c-1.83259,0 -3.11629,-1.24374 -3.11629,-2.97063c0,-1.75439 1.2837,-2.99933 3.11629,-2.99933c1.38772,0 2.72233,0.56566 3.48259,1.69819l0,2.57479c-0.75915,1.13133 -2.09487,1.69819 -3.48259,1.69819l0,-0.0012zm14.93962,1.52837c2.30402,0 3.66519,-1.01891 4.6346,-2.37627l-1.30915,-1.30115c-0.83773,1.21624 -1.91116,1.7819 -3.20925,1.7819c-2.69688,0 -4.37122,-2.26385 -4.37122,-5.29069s1.67545,-5.26199 4.37122,-5.26199c1.30915,0 2.38259,0.53816 3.20925,1.7819l1.30915,-1.30115c-0.96831,-1.35855 -2.33058,-2.37627 -4.6346,-2.37627c-3.77032,0 -6.31005,3.11294 -6.31005,7.1587c0,4.07445 2.53973,7.17544 6.31005,7.17544l0,0.00957zm10.57946,0c1.1509,0 1.85915,-0.36834 2.35714,-0.8766l-0.57545,-1.58458c-0.26227,0.31094 -0.77465,0.56566 -1.33571,0.56566c-0.86318,0 -1.2837,-0.73548 -1.2837,-1.75439l0,-8.48854l2.5674,0l0,-1.86681l-2.5674,0l0,-3.73482l-1.96428,0l0,3.73482l-2.09487,0l0,1.86801l2.09487,0l0,8.94179c0,2.03782 0.94286,3.19785 2.80201,3.19785l0,-0.00239z" fill="current" id="svg_7"/>
 </g>
</svg>