<svg viewBox="0 0 165 50" xmlns="http://www.w3.org/2000/svg" stroke="null" version="1.0">
 <g stroke="null">
  <g stroke="null" id="svg_1" fill="current" transform="translate(0 712) scale(0.1 -0.1)">
   <path stroke="null" id="svg_2" d="m220.76661,7122.21798c-44.09837,-4.88206 -84.99407,-40.8253 -105.01079,-92.26376c-11.45572,-29.36308 -17.61471,-61.06106 -18.47697,-95.1647c-1.2318,-49.95262 10.10075,-100.18826 33.75127,-149.43334l2.58678,-5.37734l-1.66293,-4.8113c-0.92385,-2.61791 -1.97088,-7.35846 -2.34042,-10.47165c-2.21724,-18.89143 9.1769,-37.07532 25.80617,-41.10832c5.29673,-1.27358 8.00669,-1.27358 13.30342,0c11.51731,2.75942 20.38626,11.74523 24.32801,24.69329c2.21724,7.1462 2.21724,17.05182 0,24.26877c-1.97088,6.3679 -6.34376,13.51409 -10.53187,17.19332c-6.77489,5.80186 -16.01338,9.12732 -22.91145,8.13676l-3.0795,-0.42453l-4.12652,8.70279c-13.98091,29.50459 -22.23396,59.43371 -25.74458,93.6081c-1.8477,17.33483 -1.35498,46.06113 0.98544,64.74029c4.00334,31.83949 16.25974,64.66954 32.76583,87.94774c13.05706,18.32539 34.92148,31.62723 59.86539,36.50928c26.17571,5.09432 46.93151,-2.61791 65.9012,-24.62254c7.82192,-9.05657 12.44116,-16.06125 18.23061,-27.73573c9.11531,-18.39615 16.56769,-43.23095 18.78492,-62.4054l0.73908,-6.86318l3.44903,-1.06132c1.90929,-0.63679 8.37623,-2.90093 14.47363,-5.02356c6.03581,-2.12263 11.08618,-3.74998 11.20936,-3.60848c0.36954,0.42453 -1.47816,17.83011 -2.89473,26.67442c-10.83982,70.25914 -47.30105,121.76836 -95.52595,135.14094c-11.94844,3.32546 -21.80283,4.10376 -33.87445,2.75942z"/>
   <path stroke="null" id="svg_3" d="m1195.24215,6965.92147c0,-29.15082 -0.18477,-53.06582 -0.49272,-53.06582c-0.24636,0 -2.34042,1.5566 -4.55765,3.46697c-5.60468,4.66979 -13.4266,8.91506 -19.64718,10.68392c-6.65171,1.91037 -19.89354,2.61791 -27.22274,1.48584c-25.31345,-3.89149 -46.06925,-22.14613 -57.9561,-51.08469c-9.42326,-22.78292 -12.87229,-52.21676 -9.60803,-82.00437c2.95632,-27.09894 11.45572,-49.88187 24.02006,-64.45728c12.87229,-14.99994 28.45454,-21.36784 47.97854,-19.74048c17.73789,1.5566 32.02675,9.05657 46.13084,24.41028l4.37288,4.66979l2.4636,-9.05657c2.77155,-10.11788 4.18811,-12.80655 7.76033,-15.2122c2.40201,-1.5566 2.89473,-1.62735 22.04919,-1.83961l19.524,-0.21226l0,152.47578l0,152.54653l-27.40751,0l-27.40751,0l0,-53.06582zm-18.78492,-84.62229c5.91263,-1.62735 11.14777,-4.8113 15.08953,-9.19807l3.69539,-4.033l0,-44.15076l0,-44.15076l-2.4636,-3.39621c-8.62259,-11.67448 -20.69421,-17.75936 -33.93604,-16.91031c-14.71999,0.99056 -23.15781,13.16032 -26.48366,38.41965c-1.29339,9.48109 -1.04703,34.17439 0.30795,43.1602c2.70996,17.26408 8.19146,29.50459 16.07497,35.73098c7.20602,5.66035 17.49153,7.35846 27.71546,4.52828z"/>
   <path stroke="null" id="svg_4" d="m692.66849,6862.33699l0,-148.30127l29.87111,0l29.87111,0l0,54.83468l0,54.83468l9.73121,0c12.25639,0 14.90476,-0.7783 19.03128,-5.5896c2.27883,-2.61791 8.19146,-13.93862 25.25186,-48.25451c12.25639,-24.69329 23.09622,-45.99037 24.14324,-47.40546c2.21724,-3.04244 7.88351,-6.58016 12.25639,-7.64148c3.14109,-0.7783 60.48129,-1.20283 60.48129,-0.42453c0,0.99056 -56.04682,105.42409 -58.38723,108.8203c-3.01791,4.31602 -9.54644,10.68392 -13.67296,13.30183l-2.40201,1.5566l6.7133,3.74998c10.03916,5.51884 14.96635,9.55185 22.97304,18.53766c9.05372,10.11788 16.01338,24.41028 19.27764,39.33946c1.97088,8.70279 2.70996,27.80649 1.53975,37.21683c-4.61924,36.014 -24.57437,58.65541 -60.60447,68.63179c-15.82861,4.38677 -16.69087,4.45753 -73.8463,4.74055l-52.22824,0.28302l0,-148.23051zm102.05448,94.52791c13.73455,-4.10376 22.48032,-13.44334 25.80617,-27.52347c1.41657,-6.08488 1.29339,-18.96218 -0.30795,-25.89612c-2.83314,-12.31127 -8.80736,-20.8018 -18.66174,-26.24989c-9.05372,-4.95281 -12.31798,-5.5896 -32.02675,-5.94337l-17.12199,-0.28302l0,44.00925l0,44.00925l18.66174,-0.35377c16.44451,-0.21226 19.21605,-0.42453 23.65052,-1.76886z"/>
   <path stroke="null" id="svg_5" d="m195.02203,6965.63845c-12.01003,-3.82074 -20.87898,-14.36315 -23.71211,-28.0895c-3.75698,-18.32539 5.41991,-37.49984 20.94057,-43.86774c5.05037,-2.12263 13.54978,-2.54716 18.60015,-1.06132c8.561,2.4764 16.44451,9.12732 20.50944,17.26408c2.15565,4.24527 2.15565,4.31602 5.54309,4.8113c4.74242,0.70754 24.63596,-0.14151 33.87445,-1.41509c35.84533,-5.02356 68.18003,-18.89143 98.60544,-42.24039c14.47363,-11.10844 29.07044,-26.17914 38.74005,-39.83474c14.16568,-20.16501 25.31345,-46.20264 29.07044,-67.85349c1.53975,-9.12732 1.8477,-25.25933 0.55431,-33.04231c-3.14109,-19.17445 -11.14777,-36.08475 -24.3896,-51.36771c-13.18024,-15.28295 -26.8532,-23.41971 -45.88448,-27.31121c-9.1769,-1.83961 -26.11412,-1.98112 -36.0301,-0.28302c-9.73121,1.69811 -23.52735,5.73111 -31.78039,9.33958c-3.94175,1.69811 -7.3292,3.11319 -7.57556,3.11319c-0.24636,0 -3.57221,-2.97169 -7.3292,-6.58016c-3.81857,-3.53772 -9.60803,-8.8443 -12.93388,-11.74523c-3.32586,-2.90093 -5.78945,-5.44809 -5.54309,-5.73111c0.92385,-0.91981 12.62593,-6.43865 19.83195,-9.26883c18.23061,-7.21695 35.59897,-10.68392 54.26071,-10.75467c13.36501,-0.07075 19.524,0.63679 31.7188,3.53772c36.39964,8.70279 69.5966,36.15551 84.00864,69.33933c11.33254,26.10838 12.8107,61.48559 4.00334,94.95243c-5.78945,21.86312 -14.90476,41.46209 -28.02341,60.21201c-6.40535,9.19807 -21.80283,27.38196 -29.19362,34.52816c-36.83077,35.58947 -80.68278,56.46203 -131.49446,62.75917c-4.92719,0.63679 -15.76702,1.27358 -24.08165,1.5566l-15.15112,0.42453l-1.66293,3.04244c-3.75698,6.86318 -11.70208,13.23108 -19.27764,15.49522c-4.18811,1.27358 -12.31798,1.27358 -16.19815,0.07075z"/>
   <path stroke="null" id="svg_6" d="m968.40651,6927.71408c-21.12534,-3.04244 -38.55528,-12.59429 -52.53619,-28.58479c-20.94057,-24.12726 -29.25521,-57.02806 -24.51278,-97.28733c4.98878,-42.09888 27.4691,-74.00912 60.35811,-85.61285c12.8107,-4.45753 24.94391,-6.01413 40.15662,-4.95281c29.19362,1.98112 52.59778,13.30183 68.05685,32.97156l2.27883,2.83018l-8.93054,12.7358c-10.40869,14.85843 -11.08618,15.35371 -18.35379,14.92918c-4.37288,-0.21226 -5.23514,-0.56604 -14.71999,-6.01413c-11.64049,-6.72167 -17.12199,-8.98581 -24.82073,-10.18864c-19.89354,-2.97169 -36.76918,6.22639 -44.28314,24.19801c-2.89473,6.79242 -4.98878,14.92918 -5.72786,21.65085l-0.36954,3.67923l55.36933,0.21226c54.07594,0.21226 55.43092,0.21226 57.46338,1.62735c3.0795,2.05188 4.37288,5.51884 5.11196,13.86787c1.2318,13.37259 -0.92385,32.68854 -5.05037,46.27339c-9.36167,30.28289 -29.3168,49.6696 -57.83292,56.32052c-6.77489,1.5566 -24.82073,2.3349 -31.65721,1.34433zm22.91145,-44.22151c1.78611,-0.49528 4.80401,-1.83961 6.59012,-2.90093c3.81857,-2.19339 9.91598,-9.19807 11.82526,-13.51409c1.8477,-4.10376 3.69539,-12.45278 3.94175,-17.5471l0.18477,-4.24527l-34.05922,-0.21226l-34.12081,-0.14151l0.43113,2.97169c2.64837,17.75936 12.8107,32.05175 25.31345,35.51872c4.80401,1.34433 15.64384,1.41509 19.89354,0.07075z"/>
   <path stroke="null" id="svg_7" d="m1278.38852,6854.34174c0,-46.98094 0.24636,-72.73554 0.67749,-76.98081c1.97088,-18.82068 7.82192,-34.38665 17.12199,-45.77811c12.56434,-15.35371 29.9327,-22.28764 51.18121,-20.30652c16.93722,1.5566 31.04131,8.77355 43.85202,22.42915c2.03247,2.19339 3.01791,2.83018 3.20268,2.19339c0.18477,-0.56604 0.92385,-3.39621 1.66293,-6.29714c2.4636,-9.69336 4.80401,-13.08957 10.10075,-14.78767c1.53975,-0.49528 9.36167,-0.7783 20.50944,-0.7783l17.98425,0l0,105.42409l0,105.42409l-27.40751,0l-27.40751,0l0,-75.14119l-0.06159,-75.21195l-3.32586,-3.04244c-4.37288,-4.033 -11.88685,-8.91506 -16.56769,-10.75467c-2.40201,-0.99056 -6.03581,-1.69811 -9.97757,-1.91037c-5.35832,-0.35377 -6.89807,-0.21226 -10.71664,1.13207c-3.94175,1.41509 -4.98878,2.19339 -8.31464,5.94337c-4.12652,4.8113 -5.97422,9.26883 -7.08284,17.12257c-0.36954,2.54716 -0.6159,31.76873 -0.6159,73.08932l0,68.7733l-27.40751,0l-27.40751,0l0,-70.54216z"/>
   <path stroke="null" id="svg_8" d="m1457.9847,6924.03485c0.24636,-0.49528 13.48819,-23.34896 29.37839,-50.66017c15.8902,-27.45272 28.7009,-50.23564 28.51613,-50.80167c-0.18477,-0.49528 -13.91932,-24.97631 -30.54859,-54.41015c-16.56769,-29.36308 -30.17906,-53.5611 -30.17906,-53.77336c0,-0.7783 50.81167,-0.35377 53.27527,0.42453c4.8656,1.5566 8.06828,6.65092 23.52735,36.7923c7.88351,15.35371 15.15112,30.07063 16.25974,32.68854l1.97088,4.88206l1.04703,-2.05188c0.6159,-1.06132 8.25305,-16.06125 16.93722,-33.32533c8.74577,-17.26408 16.56769,-32.33477 17.36835,-33.46684c0.86226,-1.13207 2.83314,-2.97169 4.43447,-4.033l2.83314,-1.91037l28.88567,-0.21226c23.34258,-0.14151 28.76249,0 28.51613,0.70754c-0.18477,0.49528 -13.79614,25.40084 -30.30224,55.40071c-16.5061,29.92912 -30.11747,54.76392 -30.30224,55.2592c-0.12318,0.42453 12.93388,22.85368 29.07044,49.88187l29.3168,49.10357l-26.05253,0.21226c-14.35045,0.07075 -26.91479,0 -28.02341,-0.21226c-4.12652,-0.84905 -6.28217,-4.38677 -21.18693,-34.31589c-7.82192,-15.70748 -14.71999,-29.99987 -15.2743,-31.76873l-1.10862,-3.11319l-7.08284,13.37259c-3.88016,7.35846 -11.5789,22.07538 -17.18358,32.7593c-8.19146,15.77824 -10.53187,19.74048 -12.50275,21.22633l-2.4636,1.83961l-29.80952,0.21226c-24.02006,0.14151 -29.68634,0 -29.3168,-0.70754z"/>
   <path stroke="null" id="svg_9" d="m68.33158,6883.20955c-36.0301,-32.05175 -56.84749,-69.6931 -62.63694,-113.27783c-4.31129,-32.19326 1.8477,-68.49028 15.76702,-93.46659c15.15112,-27.09894 44.15996,-47.1932 77.60329,-53.63185c26.97638,-5.23583 56.04682,-1.76886 88.87424,10.54241c58.94154,22.21689 103.96377,65.94312 133.58851,129.6221c2.95632,6.43865 3.75698,7.64148 4.98878,7.64148c0.80067,0 3.32586,0.7783 5.60468,1.69811c12.93388,5.44809 21.18693,19.03294 21.18693,35.02344c-0.06159,11.46222 -2.64837,18.82068 -9.48485,26.67442c-6.83648,7.78299 -13.24183,10.82543 -23.2194,10.89618c-15.15112,0 -27.83864,-11.39146 -31.65721,-28.65554c-2.34042,-10.68392 0.43113,-24.48103 6.52853,-32.54703l1.97088,-2.54716l-1.17021,-2.97169c-1.90929,-4.8113 -9.30008,-18.74992 -13.79614,-25.96687c-19.524,-31.27345 -48.28649,-58.16013 -84.43977,-78.82042c-22.97304,-13.16032 -44.89904,-19.81124 -68.67275,-20.73105c-43.91361,-1.76886 -74.15425,16.06125 -90.47558,53.5611c-16.75246,38.4904 -10.47028,80.80155 17.98425,120.07025c5.05037,7.00469 13.73455,17.05182 19.83195,22.92443l3.32586,3.18395l-2.52519,10.61316c-1.41657,5.80186 -3.14109,13.51409 -3.88016,17.12257c-0.67749,3.53772 -1.35498,6.50941 -1.35498,6.43865c-0.06159,0 -1.8477,-1.5566 -3.94175,-3.39621z"/>
  </g>
 </g>
</svg>