<svg viewBox="0 0 220 50" xmlns="http://www.w3.org/2000/svg" version="1.1">
 <g>
  <path fill-rule="nonzero" fill="current" id="path41" d="m65.77498,34.484c-0.61225,-0.31944 -1.08328,-1.00346 -1.08328,-1.91507c0,-1.22895 0.98909,-2.22537 2.31267,-2.22537c0.46886,0 0.89491,0.13332 1.22255,0.31577c2.40729,1.55007 4.90626,2.325 7.16591,2.325c2.45096,0 3.86491,-1.00335 3.86491,-2.59972l0,-0.09028c0,-1.86783 -2.63813,-2.50461 -5.56316,-3.3694c-3.67481,-1.00304 -7.7761,-2.45915 -7.7761,-7.06086l0,-0.09227c0,-4.55614 3.91238,-7.3339 8.86242,-7.3339c2.64063,0 5.42052,0.72989 7.82488,1.958c0.80366,0.41129 1.36637,1.14045 1.36637,2.09457c0,1.27692 -1.03537,2.23566 -2.35514,2.23566c-0.47396,0 -0.75651,-0.09143 -1.12956,-0.27472c-2.03044,-1.00346 -4.10379,-1.64224 -5.84745,-1.64224c-2.21718,0 -3.49024,1.00461 -3.49024,2.37213l0,0.0886c0,1.77723 2.68691,2.50419 5.61063,3.41705c3.62983,1.09405 7.73113,2.68748 7.73113,7.01488l0,0.09227c0,5.05604 -4.05621,7.55865 -9.24046,7.55865c-3.1563,0 -6.59777,-0.95339 -9.47608,-2.86877"/>
  <path fill-rule="nonzero" fill="current" id="path43" d="m106.58924,24.91927l0,-0.09227c0,-4.64432 -3.25342,-7.6968 -7.11703,-7.6968c-3.86535,0 -7.25934,3.09761 -7.25934,7.6968l0,0.09227c0,4.60086 3.39399,7.70142 7.25934,7.70142c3.91238,0 7.11703,-2.96314 7.11703,-7.70142m-19.94028,-9.70445c0,-1.54597 1.22417,-2.77775 2.8303,-2.77775c1.60156,0 2.87451,1.23178 2.87451,2.77775l0,1.64234c1.83871,-2.50429 4.43067,-4.50943 8.48569,-4.50943c5.84441,0 11.54911,4.46219 11.54911,12.47927l0,0.09227c0,7.97288 -5.65712,12.48147 -11.54911,12.48147c-4.14801,0 -6.74116,-2.0065 -8.48569,-4.23387l0,8.51364c0,1.55454 -1.27295,2.73921 -2.87451,2.73921c-1.55474,0 -2.8303,-1.18467 -2.8303,-2.73921l0,-26.46569"/>
  <path fill-rule="nonzero" fill="current" id="path45" d="m114.54925,15.21807c0,-1.54587 1.22211,-2.77775 2.82552,-2.77775c1.60667,0 2.87766,1.23189 2.87766,2.77775l0,1.32531c0.28462,-2.06424 3.76953,-4.10307 6.26916,-4.10307c1.79026,0 2.82878,1.13793 2.82878,2.73146c0,1.45653 -0.99072,2.41485 -2.26389,2.64202c-4.05415,0.6836 -6.83404,4.11168 -6.83404,8.85436l0,7.94706c0,1.50493 -1.271,2.73419 -2.87766,2.73419c-1.55452,0 -2.82552,-1.18507 -2.82552,-2.73419l0,-19.39714"/>
  <path fill-rule="nonzero" fill="current" id="path47" d="m131.50781,15.2292c0,-1.54839 1.22971,-2.78027 2.82987,-2.78027c1.60232,0 2.87549,1.23189 2.87549,2.78027l0,19.39053c0,1.54671 -1.27317,2.72968 -2.87549,2.72968c-1.5567,0 -2.82987,-1.18297 -2.82987,-2.72968l0,-19.39053"/>
  <path fill-rule="nonzero" fill="current" id="path49" d="m140.08865,15.2398c0,-1.54839 1.22646,-2.77733 2.82661,-2.77733c1.6045,0 2.87658,1.22895 2.87658,2.77733l0,1.131c1.60558,-2.23283 3.91184,-3.9223 7.77697,-3.9223c5.60976,0 8.86438,3.6459 8.86438,9.20267l0,12.9652c0,1.54797 -1.22754,2.73387 -2.82987,2.73387c-1.60232,0 -2.8744,-1.18591 -2.8744,-2.73387l0,-11.27908c0,-3.73356 -1.93256,-5.87621 -5.32732,-5.87621c-3.29916,0 -5.60976,2.23199 -5.60976,5.97016l0,11.18513c0,1.54797 -1.27208,2.73387 -2.87658,2.73387c-1.55452,0 -2.82661,-1.18591 -2.82661,-2.73387l0,-19.37657"/>
  <path fill-rule="nonzero" fill="current" id="path51" d="m177.51023,32.57019c-3.91619,0 -7.11866,-2.96188 -7.11866,-7.70005l0,-0.08944c0,-4.64558 3.25027,-7.69806 7.11866,-7.69806c3.86622,0 7.25988,3.09845 7.25988,7.69806l0,0.08944c0,4.60202 -3.39367,7.70005 -7.25988,7.70005m9.98872,-20.18068c-1.60015,0 -2.87332,1.23262 -2.87332,2.77901l0,1.6394c-1.84023,-2.50429 -4.43002,-4.50827 -8.48199,-4.50827c-5.84875,0 -11.55085,4.46229 -11.55085,12.48105l0,0.08944c0,7.97278 5.65539,12.48011 11.55085,12.48011c4.12367,0 6.7102,-1.98257 8.45592,-4.19902c-0.2857,4.33149 -3.02975,6.61841 -7.84324,6.61841c-2.87332,0 -5.37294,-0.68562 -7.63901,-1.91782c-0.28244,-0.13332 -0.60725,-0.22349 -1.03309,-0.22349c-1.31988,0 -2.40729,1.04891 -2.40729,2.27498c0,1.04853 0.61377,1.82272 1.60667,2.18727c3.01237,1.41265 6.12142,2.14174 9.61177,2.14174c4.48107,0 7.97033,-1.04689 10.23314,-3.23455c2.06944,-2.00602 3.20139,-5.00884 3.20139,-9.06519l0,-16.76405c0,-1.54639 -1.22537,-2.77901 -2.83095,-2.77901"/>
  <path fill-rule="nonzero" fill="current" id="path53" d="m137.23598,5.81133c0,1.53275 -1.28838,2.77901 -2.87658,2.77901c-1.58929,0 -2.8744,-1.24627 -2.8744,-2.77901c0,-1.53694 1.28512,-2.77775 2.8744,-2.77775c1.5882,0 2.87658,1.24081 2.87658,2.77775"/>
  <path fill-rule="nonzero" fill="current" id="path55" d="m46.63792,35.70308c-6.32358,8.14173 -19.83165,5.39351 -28.49213,5.78881c0,0 -1.53312,0.08243 -3.07733,0.32805c0,0 0.5839,-0.2407 1.32857,-0.48879c6.08264,-2.03267 8.95715,-2.44112 12.65314,-4.27567c6.94441,-3.43752 13.85569,-10.92531 15.26194,-18.70368c-2.64324,7.48107 -10.68244,13.91984 -18.0024,16.53447c-5.01022,1.78658 -14.07079,3.52528 -14.07209,3.52602c0.00424,0.00619 -0.36109,-0.18329 -0.3662,-0.18738c-6.16187,-2.89701 -6.33967,-15.79344 4.85151,-19.95057c4.90669,-1.82395 9.60003,-0.82217 14.90432,-2.04219c5.65734,-1.29981 12.20959,-5.39763 14.87282,-10.75504c2.98564,8.55759 6.57224,21.94605 0.13785,30.22599zm0.10994,-32.87777c-0.75282,1.72831 -1.67152,3.28573 -2.73068,4.67875c-4.66184,-4.62343 -11.16868,-7.50406 -18.36088,-7.50406c-14.1477,0 -25.65629,11.12246 -25.65629,24.79141c0,7.16573 3.16518,13.62833 8.21148,18.15825l0.56183,0.481c-0.93822,-0.73934 -1.0825,-2.07081 -0.32207,-2.97827c0.76508,-0.90787 2.14421,-1.04853 3.08288,-0.31329c0.94119,0.73687 1.08458,2.07163 0.32253,2.98072c-0.75923,0.90952 -2.14087,1.04689 -3.08078,0.31288l0.38233,0.32723c4.46372,3.63191 10.21775,5.82573 16.49809,5.82573c13.52295,0 24.62722,-10.16949 25.57775,-23.00515c0.70394,-6.28467 -1.21701,-14.26479 -4.48618,-23.7552"/>
 </g>
</svg>