<?xml version="1.0" standalone="no"?>
<!DOCTYPE svg PUBLIC "-//W3C//DTD SVG 1.0//EN" "http://www.w3.org/TR/2001/REC-SVG-20010904/DTD/svg10.dtd">
<svg xmlns="http://www.w3.org/2000/svg" xmlns:xlink="http://www.w3.org/1999/xlink" id="body_1" width="26" height="29">

<g transform="matrix(0.10069445 0 0 0.10069445 0.11111175 -0)">
	<g>
        <path d="M255.569 84.72C 255.567 79.89 254.534 75.622 252.445 71.959C 250.393 68.357 247.32 65.338 243.198 62.951C 209.173 43.332 175.115 23.773 141.101 4.134C 131.931 -1.16 123.04 -0.967 113.938 4.403C 100.395 12.39 32.59 51.237 12.385 62.94C 4.064 67.757 0.015 75.129 0.013 84.711C 0 124.166 0.013 163.62 0 203.076C 0.002 207.8 0.991 211.985 2.988 215.593C 5.041 219.304 8.157 222.406 12.374 224.847C 32.58 236.55 100.394 275.394 113.934 283.383C 123.04 288.756 131.931 288.948 141.104 283.652C 175.119 264.012 209.179 244.454 243.209 224.835C 247.426 222.395 250.542 219.291 252.595 215.583C 254.589 211.975 255.58 207.79 255.582 203.065C 255.582 203.065 255.582 124.176 255.569 84.72" stroke="none" fill="#5C8DBC" fill-rule="nonzero" />
        <path d="M128.182 143.509L2.988 215.593C 5.041 219.304 8.157 222.406 12.374 224.847C 32.58 236.55 100.394 275.394 113.934 283.383C 123.04 288.756 131.931 288.948 141.104 283.652C 175.119 264.012 209.179 244.454 243.209 224.835C 247.426 222.395 250.542 219.291 252.595 215.583L252.595 215.583L128.182 143.509" stroke="none" fill="#1A4674" fill-rule="nonzero" />
        <path d="M91.101 164.861C 98.386 177.579 112.081 186.157 127.791 186.157C 143.598 186.157 157.371 177.47 164.619 164.616L164.619 164.616L128.182 143.509L91.101 164.861" stroke="none" fill="#1A4674" fill-rule="nonzero" />
        <path d="M255.569 84.72C 255.567 79.89 254.534 75.622 252.445 71.959L252.445 71.959L128.182 143.509L252.595 215.583C 254.589 211.975 255.58 207.79 255.582 203.065C 255.582 203.065 255.582 124.176 255.569 84.72" stroke="none" fill="#1B598E" fill-rule="nonzero" />
        <path d="M248.728 148.661L239.006 148.661L239.006 158.385L229.282 158.385L229.282 148.661L219.561 148.661L219.561 138.94L229.282 138.94L229.282 129.218L239.006 129.218L239.006 138.94L248.728 138.94L248.728 148.661" stroke="none" fill="#FFFFFF" fill-rule="nonzero" />
        <path d="M213.253 148.661L203.532 148.661L203.532 158.385L193.81 158.385L193.81 148.661L184.088 148.661L184.088 138.94L193.81 138.94L193.81 129.218L203.532 129.218L203.532 138.94L213.253 138.94L213.253 148.661" stroke="none" fill="#FFFFFF" fill-rule="nonzero" />
        <path d="M164.619 164.616C 157.371 177.47 143.598 186.157 127.791 186.157C 112.081 186.157 98.386 177.579 91.101 164.861C 87.562 158.681 85.527 151.526 85.527 143.893C 85.527 120.552 104.45 101.63 127.791 101.63C 143.4 101.63 157.023 110.101 164.344 122.689L164.344 122.689L201.285 101.417C 186.602 76.071 159.189 59.019 127.791 59.019C 80.915 59.019 42.916 97.019 42.916 143.893C 42.916 159.271 47.007 173.692 54.157 186.131C 68.803 211.611 96.294 228.768 127.791 228.768C 159.346 228.768 186.88 211.542 201.505 185.987L201.505 185.987L164.619 164.616" stroke="none" fill="#FFFFFF" fill-rule="nonzero" />
	</g>
</g>
</svg>