<?xml version="1.0" encoding="UTF-8"?>
<svg xmlns="http://www.w3.org/2000/svg" xmlns:xlink="http://www.w3.org/1999/xlink" width="26px" height="29px" viewBox="0 0 26 29" version="1.1">
<g id="surface1">
<path style=" stroke:none;fill-rule:nonzero;fill:rgb(63.137255%,47.45098%,86.27451%);fill-opacity:1;" d="M 25.882812 8.585938 C 25.882812 8.101562 25.78125 7.675781 25.570312 7.308594 C 25.363281 6.949219 25.050781 6.648438 24.636719 6.410156 C 21.207031 4.449219 17.773438 2.492188 14.34375 0.527344 C 13.417969 0 12.519531 0.0195312 11.601562 0.554688 C 10.238281 1.355469 3.402344 5.238281 1.363281 6.40625 C 0.523438 6.890625 0.117188 7.625 0.117188 8.582031 C 0.113281 12.527344 0.117188 16.472656 0.113281 20.414062 C 0.113281 20.886719 0.214844 21.308594 0.414062 21.667969 C 0.621094 22.039062 0.9375 22.347656 1.363281 22.59375 C 3.398438 23.761719 10.238281 27.644531 11.601562 28.445312 C 12.519531 28.980469 13.417969 29 14.34375 28.46875 C 17.773438 26.507812 21.207031 24.550781 24.636719 22.589844 C 25.0625 22.347656 25.378906 22.035156 25.585938 21.667969 C 25.785156 21.304688 25.886719 20.886719 25.886719 20.414062 C 25.886719 20.414062 25.886719 12.527344 25.882812 8.585938 "/>
<path style=" stroke:none;fill-rule:nonzero;fill:rgb(15.686275%,0%,40.784314%);fill-opacity:1;" d="M 13.039062 14.460938 L 0.414062 21.667969 C 0.621094 22.039062 0.9375 22.347656 1.363281 22.59375 C 3.398438 23.761719 10.238281 27.644531 11.601562 28.445312 C 12.519531 28.980469 13.417969 29 14.34375 28.46875 C 17.773438 26.507812 21.207031 24.550781 24.636719 22.589844 C 25.0625 22.347656 25.378906 22.035156 25.585938 21.667969 Z M 13.039062 14.460938 "/>
<path style=" stroke:none;fill-rule:nonzero;fill:rgb(22.352941%,0%,56.862745%);fill-opacity:1;" d="M 25.882812 8.585938 C 25.882812 8.101562 25.78125 7.675781 25.570312 7.308594 L 13.039062 14.460938 L 25.585938 21.667969 C 25.785156 21.304688 25.886719 20.886719 25.886719 20.414062 C 25.886719 20.414062 25.886719 12.527344 25.882812 8.585938 "/>
<path style=" stroke:none;fill-rule:nonzero;fill:rgb(100%,100%,100%);fill-opacity:1;" d="M 20.472656 11.769531 L 20.472656 13.113281 L 21.832031 13.113281 L 21.832031 11.769531 L 22.511719 11.769531 L 22.511719 13.113281 L 23.867188 13.113281 L 23.867188 13.789062 L 22.511719 13.789062 L 22.511719 15.136719 L 23.867188 15.136719 L 23.867188 15.808594 L 22.511719 15.808594 L 22.511719 17.15625 L 21.832031 17.15625 L 21.832031 15.808594 L 20.472656 15.808594 L 20.472656 17.15625 L 19.792969 17.15625 L 19.792969 15.808594 L 18.433594 15.808594 L 18.433594 15.136719 L 19.792969 15.136719 L 19.792969 13.789062 L 18.433594 13.789062 L 18.433594 13.113281 L 19.792969 13.113281 L 19.792969 11.769531 Z M 21.832031 13.789062 L 20.472656 13.789062 L 20.472656 15.136719 L 21.832031 15.136719 Z M 21.832031 13.789062 "/>
<path style=" stroke:none;fill-rule:nonzero;fill:rgb(100%,100%,100%);fill-opacity:1;" d="M 13.066406 5.003906 C 16.609375 5.003906 19.703125 6.910156 21.363281 9.746094 L 21.347656 9.71875 L 17.175781 12.101562 C 16.355469 10.722656 14.847656 9.789062 13.121094 9.769531 L 13.066406 9.769531 C 10.433594 9.769531 8.296875 11.886719 8.296875 14.5 C 8.296875 15.324219 8.511719 16.132812 8.925781 16.847656 C 9.75 18.269531 11.292969 19.230469 13.066406 19.230469 C 14.851562 19.230469 16.40625 18.257812 17.222656 16.820312 L 17.203125 16.851562 L 21.367188 19.242188 C 19.726562 22.054688 16.675781 23.957031 13.175781 23.996094 L 13.066406 23.996094 C 9.511719 23.996094 6.410156 22.078125 4.757812 19.226562 C 3.949219 17.835938 3.488281 16.21875 3.488281 14.5 C 3.488281 9.253906 7.777344 5.003906 13.066406 5.003906 Z M 13.066406 5.003906 "/>
</g>
</svg>
