<?xml version="1.0" encoding="UTF-8"?>
<svg xmlns="http://www.w3.org/2000/svg" xmlns:xlink="http://www.w3.org/1999/xlink" width="26px" height="29px" viewBox="0 0 26 29" version="1.1">
<g id="surface1">
<path style=" stroke:none;fill-rule:nonzero;fill:rgb(38.039216%,85.490196%,98.431373%);fill-opacity:1;" d="M 26 14.503906 C 26 12.816406 23.84375 11.21875 20.535156 10.226562 C 21.300781 6.929688 20.960938 4.304688 19.464844 3.464844 C 19.121094 3.265625 18.71875 3.171875 18.277344 3.171875 L 18.277344 4.328125 C 18.523438 4.328125 18.71875 4.375 18.882812 4.464844 C 19.601562 4.871094 19.917969 6.410156 19.671875 8.390625 C 19.613281 8.878906 19.519531 9.394531 19.402344 9.917969 C 18.363281 9.667969 17.230469 9.476562 16.035156 9.351562 C 15.320312 8.390625 14.578125 7.519531 13.832031 6.757812 C 15.558594 5.1875 17.179688 4.324219 18.285156 4.324219 L 18.285156 3.167969 C 16.828125 3.167969 14.917969 4.183594 12.988281 5.949219 C 11.058594 4.195312 9.152344 3.1875 7.695312 3.1875 L 7.695312 4.34375 C 8.792969 4.34375 10.417969 5.203125 12.148438 6.761719 C 11.40625 7.523438 10.664062 8.390625 9.957031 9.351562 C 8.761719 9.476562 7.625 9.667969 6.585938 9.921875 C 6.464844 9.402344 6.375 8.898438 6.3125 8.417969 C 6.0625 6.4375 6.371094 4.894531 7.085938 4.484375 C 7.246094 4.390625 7.453125 4.351562 7.695312 4.351562 L 7.695312 3.195312 C 7.25 3.195312 6.847656 3.285156 6.496094 3.484375 C 5.007812 4.324219 4.675781 6.945312 5.441406 10.234375 C 2.144531 11.230469 0 12.820312 0 14.503906 C 0 16.1875 2.15625 17.785156 5.464844 18.777344 C 4.699219 22.078125 5.039062 24.703125 6.535156 25.542969 C 6.878906 25.738281 7.28125 25.832031 7.726562 25.832031 C 9.183594 25.832031 11.09375 24.816406 13.019531 23.050781 C 14.949219 24.804688 16.859375 25.8125 18.316406 25.8125 C 18.761719 25.8125 19.164062 25.71875 19.511719 25.519531 C 21.003906 24.679688 21.335938 22.0625 20.566406 18.773438 C 23.855469 17.78125 26 16.183594 26 14.503906 Z M 19.101562 11.042969 C 18.902344 11.710938 18.660156 12.402344 18.382812 13.089844 C 18.167969 12.675781 17.9375 12.261719 17.691406 11.847656 C 17.445312 11.429688 17.1875 11.027344 16.925781 10.632812 C 17.679688 10.742188 18.40625 10.875 19.101562 11.042969 Z M 16.671875 16.566406 C 16.257812 17.269531 15.835938 17.929688 15.394531 18.550781 C 14.605469 18.617188 13.804688 18.652344 13 18.652344 C 12.199219 18.652344 11.398438 18.617188 10.613281 18.554688 C 10.175781 17.9375 9.746094 17.277344 9.332031 16.582031 C 8.929688 15.902344 8.5625 15.214844 8.230469 14.519531 C 8.558594 13.824219 8.929688 13.128906 9.328125 12.449219 C 9.742188 11.746094 10.164062 11.082031 10.605469 10.464844 C 11.394531 10.398438 12.195312 10.363281 13 10.363281 C 13.800781 10.363281 14.601562 10.398438 15.386719 10.460938 C 15.824219 11.078125 16.253906 11.738281 16.667969 12.433594 C 17.070312 13.113281 17.4375 13.800781 17.769531 14.496094 C 17.4375 15.191406 17.070312 15.886719 16.671875 16.566406 Z M 18.382812 15.894531 C 18.671875 16.589844 18.914062 17.28125 19.117188 17.957031 C 18.421875 18.125 17.691406 18.261719 16.933594 18.371094 C 17.191406 17.972656 17.453125 17.5625 17.695312 17.144531 C 17.9375 16.726562 18.167969 16.308594 18.382812 15.894531 Z M 13.011719 21.429688 C 12.519531 20.929688 12.023438 20.375 11.539062 19.769531 C 12.015625 19.789062 12.5 19.804688 12.996094 19.804688 C 13.492188 19.804688 13.984375 19.792969 14.46875 19.769531 C 13.992188 20.375 13.5 20.929688 13.011719 21.429688 Z M 9.066406 18.371094 C 8.316406 18.261719 7.589844 18.128906 6.894531 17.960938 C 7.089844 17.292969 7.335938 16.605469 7.609375 15.914062 C 7.828125 16.328125 8.054688 16.742188 8.304688 17.160156 C 8.554688 17.574219 8.808594 17.976562 9.066406 18.371094 Z M 12.984375 7.578125 C 13.476562 8.074219 13.96875 8.628906 14.457031 9.238281 C 13.980469 9.214844 13.492188 9.199219 13 9.199219 C 12.5 9.199219 12.007812 9.210938 11.527344 9.238281 C 12.003906 8.628906 12.496094 8.074219 12.984375 7.578125 Z M 9.0625 10.632812 C 8.800781 11.03125 8.542969 11.441406 8.300781 11.863281 C 8.054688 12.277344 7.828125 12.691406 7.609375 13.105469 C 7.324219 12.410156 7.082031 11.71875 6.878906 11.042969 C 7.574219 10.882812 8.304688 10.742188 9.0625 10.632812 Z M 4.265625 17.128906 C 2.390625 16.34375 1.175781 15.316406 1.175781 14.503906 C 1.175781 13.6875 2.390625 12.65625 4.265625 11.878906 C 4.722656 11.6875 5.21875 11.515625 5.734375 11.355469 C 6.035156 12.371094 6.433594 13.429688 6.925781 14.511719 C 6.4375 15.59375 6.046875 16.644531 5.75 17.65625 C 5.226562 17.496094 4.726562 17.320312 4.265625 17.128906 Z M 7.117188 24.539062 C 6.398438 24.136719 6.082031 22.59375 6.328125 20.613281 C 6.386719 20.125 6.480469 19.613281 6.597656 19.089844 C 7.636719 19.335938 8.769531 19.53125 9.964844 19.652344 C 10.679688 20.613281 11.421875 21.484375 12.167969 22.246094 C 10.441406 23.820312 8.820312 24.679688 7.714844 24.679688 C 7.476562 24.675781 7.277344 24.628906 7.117188 24.539062 Z M 19.6875 20.585938 C 19.9375 22.570312 19.628906 24.109375 18.914062 24.519531 C 18.753906 24.613281 18.546875 24.65625 18.304688 24.65625 C 17.207031 24.65625 15.582031 23.796875 13.851562 22.238281 C 14.59375 21.476562 15.335938 20.609375 16.042969 19.648438 C 17.238281 19.523438 18.375 19.332031 19.414062 19.078125 C 19.535156 19.601562 19.628906 20.105469 19.6875 20.585938 Z M 21.726562 17.128906 C 21.273438 17.320312 20.773438 17.492188 20.261719 17.652344 C 19.957031 16.632812 19.5625 15.578125 19.066406 14.492188 C 19.554688 13.414062 19.949219 12.359375 20.246094 11.347656 C 20.769531 11.507812 21.265625 11.6875 21.734375 11.878906 C 23.609375 12.660156 24.824219 13.6875 24.824219 14.503906 C 24.816406 15.316406 23.605469 16.347656 21.726562 17.128906 Z M 21.726562 17.128906 "/>
<path style=" stroke:none;fill-rule:nonzero;fill:rgb(38.039216%,85.490196%,98.431373%);fill-opacity:1;" d="M 15.417969 14.503906 C 15.417969 15.8125 14.332031 16.875 12.996094 16.875 C 11.65625 16.875 10.574219 15.8125 10.574219 14.503906 C 10.574219 13.191406 11.65625 12.132812 12.996094 12.132812 C 14.332031 12.132812 15.417969 13.191406 15.417969 14.503906 Z M 15.417969 14.503906 "/>
</g>
</svg>
